<svg xmlns="http://www.w3.org/2000/svg" viewBox="0 0 1125 2436"><defs><style>.cls-1{font-size:60px;letter-spacing:0em;}.cls-1,.cls-10,.cls-12,.cls-21,.cls-29,.cls-4,.cls-6,.cls-7,.cls-8{fill:#4f563b;}.cls-1,.cls-10,.cls-12,.cls-21,.cls-8{font-family:AgathoLight, Agatho;}.cls-2{font-family:Times-BoldItalic, Times;font-weight:700;font-style:italic;}.cls-3{letter-spacing:0em;}.cls-4{font-size:150px;letter-spacing:-0.04em;}.cls-4,.cls-7{font-family:MarienthalPersonalUse, Marienthal Personal Use;}.cls-5{letter-spacing:0.01em;}.cls-7{font-size:40.59px;}.cls-25,.cls-7{letter-spacing:0.2em;}.cls-8{font-size:62.82px;letter-spacing:0em;}.cls-9{letter-spacing:0.02em;}.cls-10,.cls-12,.cls-21{font-size:60.89px;}.cls-10{letter-spacing:0em;}.cls-11{letter-spacing:0.17em;}.cls-12{letter-spacing:0em;}.cls-13{letter-spacing:0.02em;}.cls-14{letter-spacing:-0.03em;}.cls-15{letter-spacing:0.2em;}.cls-16{font-size:31.89px;letter-spacing:0.2em;}.cls-17{letter-spacing:0.2em;}.cls-18{fill:none;}.cls-18,.cls-22,.cls-28,.cls-29{stroke:#4f563b;stroke-miterlimit:10;}.cls-18,.cls-22,.cls-28{stroke-width:3px;}.cls-19{letter-spacing:0.02em;}.cls-20,.cls-21{letter-spacing:0em;}.cls-22{fill:#fdfefe;}.cls-23{letter-spacing:0.1em;}.cls-24{letter-spacing:0.1em;}.cls-26{letter-spacing:0.18em;}.cls-27{letter-spacing:0.17em;}.cls-28{fill:#fff;}.cls-29{stroke-width:2px;}</style></defs><g id="Layer_3" data-name="Layer 3"><text class="cls-1" transform="translate(402.99 299.45)">27 <tspan class="cls-2" x="68.88" y="0">·</tspan><tspan class="cls-3" x="84.06" y="0" xml:space="preserve"> 05 </tspan><tspan class="cls-2" x="177.9" y="0">· </tspan><tspan x="208.25" y="0">2022</tspan></text></g><g id="Layer_7" data-name="Layer 7"><text class="cls-4" transform="translate(38.93 222.33)">w<tspan class="cls-5" x="129.45" y="0">edding timeline</tspan></text><path class="cls-6" d="M405,451.25A53.21,53.21,0,1,1,458.2,398,53.27,53.27,0,0,1,405,451.25Zm0-103A49.82,49.82,0,1,0,454.8,398,49.88,49.88,0,0,0,405,348.22Zm0,92.66A42.84,42.84,0,1,1,447.83,398,42.89,42.89,0,0,1,405,440.88Zm0-82.29A39.45,39.45,0,1,0,444.44,398,39.5,39.5,0,0,0,405,358.59Z"/><path class="cls-6" d="M305.2,509.17A53.22,53.22,0,1,1,358.41,456,53.28,53.28,0,0,1,305.2,509.17Zm0-103A49.82,49.82,0,1,0,355,456,49.87,49.87,0,0,0,305.2,406.14Zm0,92.66A42.84,42.84,0,1,1,348,456,42.89,42.89,0,0,1,305.2,498.8Zm0-82.29A39.45,39.45,0,1,0,344.65,456,39.49,39.49,0,0,0,305.2,416.51Z"/><path class="cls-6" d="M331.6,383.13H278.79a1.69,1.69,0,0,1-1.29-2.79L286.24,370a1.72,1.72,0,0,1,1.3-.6h36.29a1.68,1.68,0,0,1,1.35.68L333,380.42a1.69,1.69,0,0,1-1.36,2.71Zm-49.16-3.39h45.77l-5.23-7H288.33Z"/><path class="cls-6" d="M313,406.14h-16a1.69,1.69,0,0,1-1.33-.65l-18.14-23a1.7,1.7,0,0,1,1.33-2.75H331.6a1.7,1.7,0,0,1,1.32,2.76l-18.63,23A1.73,1.73,0,0,1,313,406.14Zm-15.22-3.4h14.41l15.89-19.61H282.29Z"/><path class="cls-6" d="M295.64,383.13h-.05a1.68,1.68,0,0,1-1.29-.65l-8.1-10.36a1.7,1.7,0,0,1,2.68-2.09l6.83,8.75,7.72-8.82a1.65,1.65,0,0,1,1.22-.58,1.48,1.48,0,0,1,1.25.48l9.21,9.07,7.41-8.94a1.69,1.69,0,0,1,2.61,2.16l-8.58,10.37a1.72,1.72,0,0,1-1.22.61,1.61,1.61,0,0,1-1.28-.48l-9.25-9.11-7.89,9A1.7,1.7,0,0,1,295.64,383.13Z"/><path class="cls-6" d="M302.28,406.14a1.7,1.7,0,0,1-1.63-1.23l-6.64-23a1.7,1.7,0,1,1,3.26-.94l6.64,23a1.7,1.7,0,0,1-1.16,2.1A1.53,1.53,0,0,1,302.28,406.14Z"/><path class="cls-6" d="M307.3,406.14a1.7,1.7,0,0,1-1.6-2.24l7.81-23a1.7,1.7,0,1,1,3.21,1.09l-7.81,23A1.7,1.7,0,0,1,307.3,406.14Z"/><path class="cls-6" d="M274.32,371.55a1.65,1.65,0,0,1-1-.35l-9.47-7.31a1.7,1.7,0,0,1,2.07-2.69l9.47,7.31a1.7,1.7,0,0,1-1,3Z"/><path class="cls-6" d="M282,365.67a1.69,1.69,0,0,1-1.42-.77l-9-13.86a1.7,1.7,0,0,1,2.85-1.84l9,13.86a1.7,1.7,0,0,1-1.43,2.61Z"/><path class="cls-6" d="M305.2,360.57a1.7,1.7,0,0,1-1.7-1.69V333a1.7,1.7,0,1,1,3.39,0v25.92A1.69,1.69,0,0,1,305.2,360.57Z"/><path class="cls-6" d="M293.86,362.34a1.71,1.71,0,0,1-1.65-1.28L287,340a1.7,1.7,0,1,1,3.29-.82l5.25,21a1.69,1.69,0,0,1-1.23,2.06A2,2,0,0,1,293.86,362.34Z"/><path class="cls-6" d="M336.07,371.55a1.7,1.7,0,0,1-1-3l9.47-7.31a1.7,1.7,0,1,1,2.07,2.69l-9.47,7.31A1.65,1.65,0,0,1,336.07,371.55Z"/><path class="cls-6" d="M328.43,365.67a1.72,1.72,0,0,1-.92-.27,1.69,1.69,0,0,1-.5-2.34L336,349.2a1.7,1.7,0,0,1,2.85,1.84l-8.95,13.86A1.7,1.7,0,0,1,328.43,365.67Z"/><path class="cls-6" d="M316.53,362.34a2,2,0,0,1-.41,0,1.69,1.69,0,0,1-1.23-2.06l5.25-21A1.72,1.72,0,0,1,322.2,338a1.69,1.69,0,0,1,1.23,2.06l-5.25,21.05A1.7,1.7,0,0,1,316.53,362.34Z"/><text class="cls-7" transform="translate(242.36 603.86)">CEREMONY</text><text class="cls-8" transform="translate(316.03 565.7)">4:<tspan class="cls-9" x="41.71" y="0">0</tspan><tspan x="75.38" y="0">0</tspan></text><path class="cls-6" d="M651,705.11a1.7,1.7,0,0,1-1.64-1.28l-24.9-98.09a1.67,1.67,0,0,1,.18-1.29,1.72,1.72,0,0,1,1-.77l108.91-27.55a1.7,1.7,0,0,1,2.06,1.22l24.91,98.1a1.64,1.64,0,0,1-.19,1.28,1.68,1.68,0,0,1-1,.78L651.41,705.06A2,2,0,0,1,651,705.11Zm-22.84-98.56,24.07,94.8,105.63-26.71-24.08-94.81Z"/><path class="cls-6" d="M659.39,692.34a1.81,1.81,0,0,1-.87-.24,1.74,1.74,0,0,1-.78-1L638.8,616.15a1.69,1.69,0,0,1,1.23-2.06l86.88-22a1.7,1.7,0,0,1,1.28.19,1.68,1.68,0,0,1,.78,1l18.95,74.91a1.69,1.69,0,0,1-1.23,2.06l-86.89,22A1.84,1.84,0,0,1,659.39,692.34ZM642.5,617l18.12,71.62,83.59-21.14L726.1,595.82Z"/><path class="cls-6" d="M819.68,671.57a1.63,1.63,0,0,1-.57-.1l-67.48-24.11a1.69,1.69,0,0,1-1.08-1.18l-7.9-31.26a1.67,1.67,0,0,1,0-1l17-47.54a1.68,1.68,0,0,1,.87-1,1.7,1.7,0,0,1,1.29-.07l84.4,30.15a1.71,1.71,0,0,1,1,2.17l-26,72.76A1.71,1.71,0,0,1,819.68,671.57Zm-66.06-27.09,65,23.22,24.85-69.57-81.2-29-16.24,45.46Z"/><path class="cls-6" d="M826,686a1.63,1.63,0,0,1-.57-.1l-70.34-25.38a1.66,1.66,0,0,1-1.06-1.18l-16.38-64.16a1.67,1.67,0,0,1,0-1l15.87-44.41a1.69,1.69,0,0,1,2.16-1l105.8,37.79a1.7,1.7,0,0,1,1,2.18L827.6,684.86A1.7,1.7,0,0,1,826,686ZM757.09,657.6,825,682.11l33.78-93L756.18,552.49l-15.12,42.33Z"/><text class="cls-10" transform="translate(693.44 759.75)">4:30</text><text class="cls-7" transform="translate(650.36 806.46)">PH<tspan class="cls-11" x="69.01" y="0">OT</tspan><tspan x="135.09" y="0">OS</tspan></text><text class="cls-12" transform="translate(319.88 957.16)">5:<tspan class="cls-13" x="39.94" y="0">0</tspan><tspan x="72.58" y="0">0</tspan></text><text class="cls-7" transform="translate(212.24 996.89)">L<tspan class="cls-14" x="29.39" y="0">A</tspan><tspan class="cls-15" x="57.76" y="0">WN </tspan><tspan class="cls-11" x="159.49" y="0">G</tspan><tspan x="191.64" y="0">AMES</tspan><tspan class="cls-16"><tspan x="129.93" y="38.27">and</tspan></tspan><tspan class="cls-17"><tspan x="48.81" y="86.99">CANAPES</tspan></tspan></text><path class="cls-18" d="M305.7,735.69l38.17,41.64,67.42,73.56a14.42,14.42,0,0,0,6.48-4.71,15.89,15.89,0,0,0,3-6.58q-33.53-35.88-67.07-71.75l-37.46-40.06a6.46,6.46,0,0,0-9.39-.66A7.54,7.54,0,0,0,305.7,735.69Z"/><path class="cls-18" d="M343.83,777.75a55.84,55.84,0,0,0,9.67-10.62"/><path class="cls-18" d="M439,819.8a4.53,4.53,0,0,0-2.67.71c-1.13.77-1.37,1.78-2.51,3.4a18.22,18.22,0,0,1-2.51,2.77c-1.43,1.45-4.31,4.8-10.54,12.92a13.75,13.75,0,0,1-2.49,6.58,12.38,12.38,0,0,1-7,4.71l-15.65,14.23c-1.36,1.13-3.33,3.14-3.17,5.46.11,1.71,1.32,2.44,4.93,6,2.68,2.64,5.55,5.71,7.1,7.42,3.69,4.08,4.34,5.39,5.94,5.46,2.24.09,4.12-2.34,5.18-4A198.64,198.64,0,0,1,432.67,864c2.9-3.18,11.37-12.46,19.14-17.62,1.19-.79,4.91-3.17,5.1-6.7a6.23,6.23,0,0,0-.84-3.31,30.1,30.1,0,0,1-7-6.8c-2.58-3.5-4-7.18-8-9A10.46,10.46,0,0,0,439,819.8Z"/><line class="cls-18" x1="399.25" y1="861.96" x2="418.08" y2="881.9"/><line class="cls-18" x1="432.74" y1="826.58" x2="451.58" y2="846.52"/><line class="cls-18" x1="413.47" y1="866.77" x2="425.69" y2="854.17"/><path class="cls-18" d="M436.74,735.53l-37.95,41.52L331.74,850.4a14.36,14.36,0,0,1-6.44-4.69,15.9,15.9,0,0,1-3-6.57L389,767.6l37.25-40a6.41,6.41,0,0,1,9.34-.65A7.53,7.53,0,0,1,436.74,735.53Z"/><path class="cls-18" d="M398.83,777.47a55.4,55.4,0,0,1-9.62-10.59"/><path class="cls-18" d="M304.17,819.4a4.5,4.5,0,0,1,2.66.71c1.12.76,1.36,1.78,2.49,3.39a18.09,18.09,0,0,0,2.5,2.76c1.42,1.45,4.28,4.79,10.48,12.88a13.69,13.69,0,0,0,2.48,6.56,12.24,12.24,0,0,0,7,4.7l15.57,14.19c1.35,1.13,3.31,3.13,3.15,5.45-.11,1.71-1.31,2.44-4.9,6-2.67,2.63-5.52,5.69-7.06,7.4-3.67,4.07-4.32,5.37-5.91,5.44-2.23.1-4.09-2.33-5.15-4a197.61,197.61,0,0,0-16.95-21.4c-2.89-3.16-11.31-12.42-19-17.56-1.18-.79-4.88-3.17-5.07-6.69a6.32,6.32,0,0,1,.83-3.3,29.84,29.84,0,0,0,7-6.77c2.56-3.49,4-7.17,7.93-9A10.41,10.41,0,0,1,304.17,819.4Z"/><line class="cls-18" x1="343.72" y1="861.44" x2="324.99" y2="881.33"/><line class="cls-18" x1="310.41" y1="826.17" x2="291.68" y2="846.05"/><line class="cls-18" x1="316.71" y1="853.47" x2="304.55" y2="840.91"/><ellipse class="cls-18" cx="371.25" cy="847.98" rx="13.15" ry="14.11"/><path class="cls-6" d="M703,1068.15a18.21,18.21,0,0,1-3.56-.35c-9.58-1.92-15.09-10.92-14-23s10.46-63.26,10.86-65.43a1.71,1.71,0,0,1,1.49-1.38c1.09-.11,26.63-2.58,38.17,10.33a1.7,1.7,0,0,1,.41,1.43c-.36,2-8.77,48.58-12.19,61.19C721,1062.31,711.56,1068.15,703,1068.15Zm-3.65-86.83c-1.5,8.18-9.63,52.94-10.58,63.82-.9,10.35,3.45,17.76,11.33,19.33,6.64,1.33,17.48-2.25,20.76-14.37,3.12-11.55,10.79-53.59,12-60.06C723.5,980.53,704.37,981,699.3,981.32Z"/><path class="cls-6" d="M688.09,1122.53a2.07,2.07,0,0,1-.35,0,1.7,1.7,0,0,1-1.31-2l11.63-54.71a1.67,1.67,0,0,1,2-1.3,1.69,1.69,0,0,1,1.31,2l-11.63,54.7A1.7,1.7,0,0,1,688.09,1122.53Z"/><path class="cls-6" d="M699.31,1126.13a1.48,1.48,0,0,1-.41-.05L677,1120.53a1.7,1.7,0,0,1,.83-3.29l21.94,5.55a1.7,1.7,0,0,1-.42,3.34Z"/><path class="cls-6" d="M703,1068.15a18.21,18.21,0,0,1-3.56-.35c-9.58-1.92-15.09-10.92-14-23,.33-3.73,1.48-11.51,3.41-23.15a1.71,1.71,0,0,1,1.68-1.41c30.57,0,39.92-18,40.3-18.75a1.71,1.71,0,0,1,2.06-.85,1.68,1.68,0,0,1,1.12,1.92c-1.27,6.71-7.72,40.58-9.83,48.38C721,1062.31,711.56,1068.15,703,1068.15Zm-11.09-44.49c-1.78,10.77-2.83,18-3.14,21.48-.9,10.35,3.45,17.76,11.33,19.33,6.64,1.33,17.48-2.25,20.76-14.37,1.41-5.22,5-23.4,8.39-40.86C723.61,1015.18,712.27,1023.3,691.86,1023.66Z"/><path class="cls-6" d="M768.78,1068.15c-8.61,0-18.06-5.84-21.13-17.16-3.42-12.61-11.83-59.21-12.19-61.19a1.7,1.7,0,0,1,.41-1.43C747.41,975.46,773,977.93,774,978a1.71,1.71,0,0,1,1.49,1.38c.4,2.17,9.8,53.33,10.85,65.43s-4.46,21-14,23A18.21,18.21,0,0,1,768.78,1068.15ZM739,990c1.17,6.47,8.84,48.51,12,60.06,3.28,12.12,14.1,15.71,20.76,14.37,7.89-1.57,12.23-9,11.32-19.33-.94-10.88-9.07-55.63-10.57-63.82C767.33,981,748.21,980.55,739,990Z"/><path class="cls-6" d="M783.64,1122.53a1.69,1.69,0,0,1-1.66-1.34l-11.63-54.7a1.7,1.7,0,0,1,3.32-.71l11.62,54.71a1.7,1.7,0,0,1-1.3,2Z"/><path class="cls-6" d="M772.42,1126.13a1.7,1.7,0,0,1-.42-3.34l21.93-5.55a1.7,1.7,0,1,1,.83,3.29l-21.93,5.55A1.48,1.48,0,0,1,772.42,1126.13Z"/><path class="cls-6" d="M768.78,1068.15c-8.61,0-18.06-5.84-21.13-17.16-2.12-7.8-8.57-41.67-9.84-48.38a1.69,1.69,0,0,1,3.18-1.07c.39.77,9.74,18.75,40.31,18.75a1.69,1.69,0,0,1,1.67,1.41c1.95,11.68,3.09,19.47,3.41,23.15,1,12-4.46,21-14,23A18.21,18.21,0,0,1,768.78,1068.15Zm-26.26-58.91c3.35,17.46,7,35.64,8.4,40.86,3.28,12.12,14.1,15.71,20.76,14.37,7.89-1.57,12.23-9,11.32-19.33-.29-3.45-1.35-10.67-3.14-21.48C759.46,1023.3,748.12,1015.18,742.52,1009.24Z"/><path class="cls-6" d="M732.25,979.85a1.71,1.71,0,0,1-1-.36L718,969.27a1.7,1.7,0,0,1,2.08-2.68l13.17,10.22a1.7,1.7,0,0,1-1,3Z"/><path class="cls-6" d="M737.13,977.18a1.71,1.71,0,0,1-1.68-1.43l-3.6-22.88a1.7,1.7,0,0,1,3.35-.53l3.6,22.88a1.69,1.69,0,0,1-1.41,1.94Z"/><path class="cls-6" d="M742.63,977.18a1.69,1.69,0,0,1-1.25-2.84L753.52,961A1.7,1.7,0,1,1,756,963.3l-12.15,13.33A1.7,1.7,0,0,1,742.63,977.18Z"/><text class="cls-12" transform="translate(683.96 1191.8)">6:<tspan class="cls-19" x="39.88" y="0">0</tspan><tspan class="cls-20" x="72.52" y="0">0</tspan></text><text class="cls-7" transform="translate(597.45 1238.51)">RECEIPTION<tspan class="cls-17"><tspan x="-3.9" y="48.71">COMMENCES</tspan></tspan></text><path class="cls-6" d="M346.2,1381.49A72.51,72.51,0,1,1,418.71,1309,72.59,72.59,0,0,1,346.2,1381.49Zm0-141.62A69.12,69.12,0,1,0,415.32,1309,69.19,69.19,0,0,0,346.2,1239.87Z"/><path class="cls-6" d="M346.2,1374a65,65,0,1,1,65-65A65.11,65.11,0,0,1,346.2,1374Zm0-126.68A61.64,61.64,0,1,0,407.84,1309,61.71,61.71,0,0,0,346.2,1247.34Z"/><path class="cls-6" d="M346.2,1358.25A49.27,49.27,0,1,1,395.47,1309,49.32,49.32,0,0,1,346.2,1358.25Zm0-95.15A45.88,45.88,0,1,0,392.07,1309,45.93,45.93,0,0,0,346.2,1263.1Z"/><path class="cls-6" d="M478.4,1309.61c-2.53,0-5.3-1.53-6.85-5.07L449,1252.93c-2.45-1.09-10.15-5.53-14.89-19.57-3.66-10.87-6.81-42-1.6-44.07,1.51-.59,2.86.41,4,3,.55,1.27,42.74,97.8,46.83,107.15h0c2.17,5,.21,8.53-2.54,9.73A5.87,5.87,0,0,1,478.4,1309.61Zm-44.84-115.55c-1.07,6.58-.09,26.82,3.76,38.22,5,14.74,13.39,17.7,13.47,17.73a1.69,1.69,0,0,1,1,.93l22.84,52.24c1.18,2.69,3.32,3.46,4.75,2.84s1.89-2.75.8-5.26h0C476.25,1291.73,436.72,1201.29,433.56,1194.06Z"/><path class="cls-6" d="M445.06,1324a4.61,4.61,0,0,1-.53,0,4.12,4.12,0,0,1-3.67-2.42l-34.08-78a10.8,10.8,0,0,1-6.73.08,9.06,9.06,0,0,1-5.24-5.24l-10-22.87a5.1,5.1,0,0,1,.42-5.18,5.56,5.56,0,0,1,5-2.13,5.08,5.08,0,0,1,4.16,3.12l6,13.63c0-.09.24-.14.32-.21l-6.05-13.52a5.35,5.35,0,0,1,2.52-7.33c2.28-1,5.4-.22,6.91,3.21l5.95,13.62s.17-.17.21-.26L404.29,1207a5.21,5.21,0,0,1,2.81-7,5,5,0,0,1,6.78,2.79l10,22.86a8.75,8.75,0,0,1,.24,7.17,12,12,0,0,1-5.4,5.5l34.07,77.94c1.09,2.49-.6,5.31-4.11,6.84A9.17,9.17,0,0,1,445.06,1324Zm-37.38-84.25a1.65,1.65,0,0,1,.58.1,1.69,1.69,0,0,1,1,.91L444,1320.17c0,.09.15.34.85.4a5.48,5.48,0,0,0,2.51-.52c1.63-.71,2.59-1.84,2.35-2.37L415,1238.23a1.66,1.66,0,0,1,0-1.33,1.69,1.69,0,0,1,1-.93s3.86-1.49,5.1-4.42a5.53,5.53,0,0,0-.23-4.48l-10-22.86a1.64,1.64,0,0,0-2.33-1,1.87,1.87,0,0,0-1.06,2.51l6,13.64a3.53,3.53,0,0,1-2,4.53,3.25,3.25,0,0,1-4.41-1.72l-6-13.63c-.58-1.32-1.51-1.87-2.45-1.46s-1.4,1.4-.77,2.86l6,13.63a3.23,3.23,0,0,1-1.73,4.4,3.53,3.53,0,0,1-4.7-1.58l-6-13.63a1.72,1.72,0,0,0-1.44-1.11,2.11,2.11,0,0,0-1.9.77,1.73,1.73,0,0,0,0,1.81l10,22.87a5.75,5.75,0,0,0,3.25,3.4c2.67,1,5.72-.55,5.75-.56A1.7,1.7,0,0,1,407.68,1239.72Zm2.34-19h0Z"/><text class="cls-21" transform="translate(307.37 1454.33)">7.30</text><text class="cls-7" transform="translate(269.48 1494.06)">DINNER</text><text class="cls-12" transform="translate(688.81 1674.63)">8:10</text><text class="cls-7" transform="translate(619.1 1723)">SPEECHES</text><path class="cls-22" d="M746.07,1517.67c1.52,5.07,17.26,55.43,36,49.78s4.15-56.33,2.63-61.41-11.42-6.58-22.09-3.37S744.54,1512.6,746.07,1517.67Z"/><path class="cls-22" d="M746.07,1517.67c1.52,5.07,11.42,6.58,22.1,3.37s18.09-9.92,16.57-15-11.42-6.58-22.09-3.37S744.54,1512.6,746.07,1517.67Z"/><path class="cls-22" d="M757.93,1537.33c1.09,3.6,8,24.67,21.34,20.68s7.14-25.31,6.06-28.91-8.09-4.66-15.65-2.39S756.86,1533.74,757.93,1537.33Z"/><path class="cls-22" d="M810.85,1594c1,3.26-6.72,8.48-17.21,11.67s-19.81,3.13-20.79-.13,6.71-8.48,17.21-11.66S809.86,1590.76,810.85,1594Z"/><path class="cls-22" d="M789,1598.53l-9.28-30.68a10,10,0,0,0,2.39-.4,9.76,9.76,0,0,0,2.13-.94l9.86,32.58"/><path class="cls-22" d="M769.68,1526.71c6.5-2,12.57-1.43,14.84,1-2.45,2-5.35,4.45-9.09,7.58-6,5-11.48,6.36-16.06,6.13-.73-1.87-1.21-3.37-1.44-4.12C756.86,1533.74,762.12,1529,769.68,1526.71Z"/><path class="cls-22" d="M749.43,1405l-5.6,11.87c-.43,1.38-3.94,1.51-7.83.28s-6.69-3.33-6.26-4.71l2.2-12.94Z"/><path class="cls-22" d="M732.08,1399.55c-.53,1.69,2.89,4.27,7.65,5.76s9,1.34,9.57-.35-2.9-4.26-7.65-5.76S732.61,1397.86,732.08,1399.55Z"/><path class="cls-22" d="M715.78,1481.18c26.72,8.4,22.47,34.61,20.6,40.56l-27.31,86.86c-1.87,6-17,6.5-33.76,1.22s-28.84-14.37-27-20.32l27.31-86.85C677.52,1496.69,689.05,1472.77,715.78,1481.18Z"/><path class="cls-22" d="M703.79,1481.06l15.27-38.32c-1.55-1.24-2.37-2.5-2-3.5l2.45-7.78c.67-2.15,6.13-2.35,12.18-.44s10.42,5.19,9.74,7.34l-2.44,7.78c-.33,1-1.79,1.61-3.88,1.72L725.67,1488a1.51,1.51,0,0,1,0,.67c-.68,2.18-6.21,2.38-12.36.45s-10.56-5.26-9.88-7.44A1.73,1.73,0,0,1,703.79,1481.06Z"/><path class="cls-22" d="M668.71,1525c-1.87,6,10.2,15.06,27,20.33,16.21,5.1,30.83,4.74,33.49-.66l-14.32,45.53c-1.87,6-17,6.5-33.75,1.23s-28.85-14.38-27-20.33l14.5-46.12Z"/><path class="cls-22" d="M683.56,1583.61c12.82,4,21.18,3.5,23.92,2.67l9.16-29.12a80.75,80.75,0,0,1-23.42-4,79.41,79.41,0,0,1-21.62-10.26l-9.18,29.18C664.19,1574.36,670.73,1579.58,683.56,1583.61Z"/><path class="cls-22" d="M677.31,1497.67c-1.87,5.95,10.21,15,27,20.32,16.21,5.1,30.83,4.74,33.48-.66l-2.61,8.31c-1.87,5.95-17,6.5-33.76,1.23s-28.84-14.37-27-20.33l2.8-8.9Z"/><path class="cls-22" d="M696.57,1538.41c6.78,2.13,14.27-3.13,17-12s-.34-17.45-7.12-19.58-14.26,3.13-17,12S689.8,1536.28,696.57,1538.41Z"/><path class="cls-22" d="M693.37,1520.06c-2,6.55-.07,13,4.43,14.43s9.84-2.74,11.9-9.29.08-13-4.43-14.43S695.44,1513.51,693.37,1520.06Z"/><path class="cls-22" d="M723.37,1432.69c-.44,1.38,2.37,3.5,6.26,4.72s7.4,1.1,7.84-.28-2.37-3.5-6.27-4.72S723.81,1431.31,723.37,1432.69Z"/><path class="cls-22" d="M735.06,1447.86s-6.45,0-10.75-2.27"/><text class="cls-12" transform="translate(319.56 1854.41)">8:35</text><text class="cls-7" transform="translate(288.91 1894.14)">BRI<tspan class="cls-23" x="85.24" y="0">D</tspan><tspan class="cls-15" x="115.2" y="0">AL</tspan><tspan class="cls-24"><tspan x="11.43" y="48.71">D</tspan><tspan class="cls-25" x="41.38" y="48.71">ANCE</tspan></tspan></text><path class="cls-6" d="M389.81,1766h0a1.88,1.88,0,0,1-1.8-1.39l-3.43-12.73-12.73-3.43a1.87,1.87,0,0,1,0-3.61l12.73-3.43,3.43-12.73a1.94,1.94,0,0,1,3.61,0l3.43,12.73,12.73,3.43a1.87,1.87,0,0,1,0,3.61l-12.73,3.43-3.43,12.73A1.87,1.87,0,0,1,389.81,1766Zm-10.28-19.36,7.06,1.91a1.84,1.84,0,0,1,1.32,1.32l1.9,7.06,1.91-7.06a1.86,1.86,0,0,1,1.32-1.32l7.06-1.91-7.06-1.9a1.86,1.86,0,0,1-1.32-1.32l-1.91-7.06-1.9,7.06a1.84,1.84,0,0,1-1.32,1.32Z"/><path class="cls-6" d="M404.31,1652.9h0a1.86,1.86,0,0,1-1.8-1.38l-3.43-12.73-12.73-3.43a1.87,1.87,0,0,1,0-3.61l12.73-3.43,3.43-12.73a1.94,1.94,0,0,1,3.61,0l3.43,12.73,12.73,3.43a1.87,1.87,0,0,1,0,3.61l-12.73,3.43-3.43,12.73A1.86,1.86,0,0,1,404.31,1652.9ZM394,1633.55l7.06,1.91a1.86,1.86,0,0,1,1.32,1.32l1.9,7.06,1.91-7.06a1.84,1.84,0,0,1,1.32-1.32l7.06-1.91-7.06-1.9a1.86,1.86,0,0,1-1.32-1.32l-1.91-7.06-1.9,7.06a1.87,1.87,0,0,1-1.32,1.32Z"/><path class="cls-6" d="M455.51,1692.26h0a1.87,1.87,0,0,1-1.8-1.38l-3.43-12.74-12.73-3.42a1.87,1.87,0,0,1,0-3.62l12.73-3.42,3.43-12.74a1.94,1.94,0,0,1,3.61,0l3.43,12.74,12.73,3.42a1.88,1.88,0,0,1,0,3.62l-12.73,3.42-3.43,12.74A1.88,1.88,0,0,1,455.51,1692.26Zm-10.28-19.35,7.06,1.9a1.9,1.9,0,0,1,1.33,1.32l1.89,7.07,1.91-7.07a1.87,1.87,0,0,1,1.32-1.32l7.06-1.9-7.06-1.9a1.87,1.87,0,0,1-1.32-1.32l-1.91-7.07-1.9,7.07a1.87,1.87,0,0,1-1.32,1.32Z"/><path class="cls-6" d="M347.59,1746.37a18.07,18.07,0,0,1,0-36.14,17.75,17.75,0,0,1,10.85,3.66l9.64-32.24-41.31-11.44L314,1714.31a2,2,0,0,1-.24.52,18,18,0,1,1-16.78-24.62,17.72,17.72,0,0,1,10.84,3.66l14.52-48.56a1.86,1.86,0,0,1,2.25-1.27l59.71,15.21a2,2,0,0,1,1.16.89,1.86,1.86,0,0,1,.17,1.44l-21,72.74a2,2,0,0,1-.25.53A18.07,18.07,0,0,1,347.59,1746.37Zm0-32.4A14.33,14.33,0,1,0,361,1733.12a1.39,1.39,0,0,1,.12-.28l20.3-70.44-56.09-14.29-14.85,49.66a1.86,1.86,0,0,1-3.16.74,14.14,14.14,0,0,0-10.42-4.55,14.33,14.33,0,1,0,13.43,19.14,2.39,2.39,0,0,1,.13-.28l13.21-45.43a1.87,1.87,0,0,1,2.29-1.28l44.92,12.44a1.87,1.87,0,0,1,1.14.9,1.9,1.9,0,0,1,.16,1.44l-11,36.9a1.88,1.88,0,0,1-3.16.74A14.18,14.18,0,0,0,347.59,1714Z"/><path class="cls-6" d="M422.8,1795.79a18.07,18.07,0,0,1-11.2-32.28,17.76,17.76,0,0,1,10.79-3.82l-26.53-67.08a1.87,1.87,0,0,1,.48-2.06c.59-.55,14.64-13.17,30.09-7a1.88,1.88,0,0,1,1,1l5.6,12a1.87,1.87,0,0,1-.28,2,1.84,1.84,0,0,1-1.95.56c-4-1.19-14.81-3.35-20.5-.22l29.58,73.08a2.2,2.2,0,0,1,.13.55,18.08,18.08,0,0,1-6.08,19.44A17.89,17.89,0,0,1,422.8,1795.79Zm-.13-32.36a14.08,14.08,0,0,0-8.75,3,14.33,14.33,0,1,0,22.38,6.76,2.3,2.3,0,0,1-.06-.28l-30-74.08a1.88,1.88,0,0,1,.56-2.16c5.6-4.49,15.64-3.27,21.16-2.14l-3.62-7.74c-10.87-3.92-21.34,3.21-24.52,5.69L427,1761.06a1.87,1.87,0,0,1-2,2.54A14.42,14.42,0,0,0,422.67,1763.43Z"/><path class="cls-6" d="M812.53,2026.47H672.18A1.73,1.73,0,0,1,671,2026a1.7,1.7,0,0,1-.48-1.23c.13-5,1.51-49.36,8.27-56.55,12-12.75,40.72-17.3,63.6-17.3,14.91,0,59.07,3.26,66.25,17.71,4.53,9.11,5.57,54.23,5.62,56.15a1.75,1.75,0,0,1-.49,1.22A1.69,1.69,0,0,1,812.53,2026.47Zm-138.6-3.39H810.8c-.38-14-1.89-46.28-5.22-53-5.37-10.8-40.9-15.83-63.22-15.83s-49.87,4.27-61.13,16.24C676.91,1975.1,674.53,2003.8,673.93,2023.08Z"/><path class="cls-6" d="M802.39,1984.81c-6.68,0-12.27-4.57-15.35-8.45a15.89,15.89,0,0,1-11,3c-6.57-.65-11.89-5.2-14.32-7.67-4.66,5.71-9.81,8.62-15.33,8.64h-.06c-7.67,0-13.78-5.58-16.47-8.52-3.6,4.66-7.88,7.31-12.74,7.87-7.27.86-13.77-3.23-16.7-5.46-3.15,5.24-7.1,8.56-11.75,9.87a18.62,18.62,0,0,1-13.55-1.72,1.7,1.7,0,0,1-.79-1.77c1.24-6.63,2.64-10.58,4.4-12.45,12-12.76,40.72-17.3,63.6-17.3,14.91,0,59.07,3.25,66.25,17.71h0c1.06,2.14,2,6.12,2.77,12.18a1.7,1.7,0,0,1-.82,1.69A15.89,15.89,0,0,1,802.39,1984.81Zm-15-12.55.24,0a1.69,1.69,0,0,1,1.16.74c.35.52,8.44,12.35,19.07,7-.87-6.16-1.71-8.82-2.28-10h0c-5.37-10.8-40.9-15.83-63.22-15.83s-49.87,4.27-61.13,16.24c-.67.71-2,2.88-3.29,9.48a15,15,0,0,0,9.88.85c4.22-1.2,7.8-4.55,10.64-10a1.73,1.73,0,0,1,1.22-.88,1.68,1.68,0,0,1,1.44.43c.07.07,7.59,6.85,15.65,5.94,4.42-.53,8.32-3.28,11.6-8.21a1.73,1.73,0,0,1,1.37-.75,1.58,1.58,0,0,1,1.4.68c.07.09,6.76,8.9,15.22,8.9h.06c4.89,0,9.55-3,13.85-8.89a1.73,1.73,0,0,1,1.33-.69,1.78,1.78,0,0,1,1.36.63c.06.07,6,7.27,13.46,8a13.12,13.12,0,0,0,9.88-3.36A1.69,1.69,0,0,1,787.39,1972.26Z"/><path class="cls-6" d="M811.54,2003.3a1.67,1.67,0,0,1-.44-.06c-69.37-18.67-136.41-1.46-137.08-1.29a1.7,1.7,0,1,1-.86-3.28c.67-.18,68.6-17.63,138.82,1.3a1.7,1.7,0,0,1-.44,3.33Z"/><path class="cls-6" d="M789.25,1931.2c-5.15,0-9.47-3.38-12-6.37a12.65,12.65,0,0,1-8.44,2.2c-4.94-.49-9-3.73-11-5.71-3.6,4.27-7.59,6.44-11.88,6.46h-.05c-5.79,0-10.45-4-12.7-6.34-2.79,3.44-6.09,5.4-9.82,5.84-5.49.66-10.41-2.24-12.86-4-2.45,3.9-5.49,6.38-9.07,7.39a14.85,14.85,0,0,1-10.79-1.36,1.68,1.68,0,0,1-.79-1.77c1-5.16,2.09-8.26,3.5-9.75,9.36-9.89,31.68-13.41,49.44-13.41,11.58,0,45.92,2.54,51.56,13.81h0c.84,1.68,1.55,4.78,2.18,9.48a1.69,1.69,0,0,1-.82,1.69A12.69,12.69,0,0,1,789.25,1931.2Zm-11.6-10.42h.24a1.71,1.71,0,0,1,1.16.73c.27.39,6.22,9,14,5.4-.65-4.47-1.27-6.4-1.69-7.24-4.07-8.14-31.37-11.94-48.53-11.94s-38.35,3.25-47,12.35c-.48.5-1.4,2.05-2.39,6.77a11.28,11.28,0,0,0,7.12.5c3.15-.89,5.83-3.41,8-7.46a1.71,1.71,0,0,1,1.21-.88,1.81,1.81,0,0,1,1.44.43s5.73,5.15,11.81,4.46c3.3-.4,6.22-2.45,8.68-6.13a1.73,1.73,0,0,1,1.36-.75,1.69,1.69,0,0,1,1.4.68c0,.06,5.12,6.67,11.46,6.67H746c3.65,0,7.15-2.26,10.4-6.66a1.71,1.71,0,0,1,1.33-.69,1.89,1.89,0,0,1,1.35.62c0,.06,4.54,5.46,10.15,6a9.74,9.74,0,0,0,7.36-2.49A1.69,1.69,0,0,1,777.65,1920.78Z"/><path class="cls-6" d="M688.6,1964.65a1.71,1.71,0,0,1-1.69-1.75c.27-9.27,1.56-39.94,6.49-45.14,9.36-9.89,31.68-13.41,49.44-13.41,11.58,0,45.92,2.54,51.56,13.81,3.33,6.67,4.23,37.16,4.38,43.21a1.77,1.77,0,0,1-.75,1.48,1.7,1.7,0,0,1-1.63.16c-13.47-6-37.46-8.74-54-8.74-8,0-35.56.74-53,10.17A1.66,1.66,0,0,1,688.6,1964.65Zm54.24-56.91c-17.06,0-38.35,3.25-47,12.35-2.9,3.05-4.82,22.35-5.48,40.05,18.09-8.56,44.12-9.26,52-9.26,16,0,38.75,2.52,53,8-.41-13.5-1.62-34.53-4-39.21C787.3,1911.54,760,1907.74,742.84,1907.74Z"/><path class="cls-6" d="M795.87,1945.83a1.65,1.65,0,0,1-.43-.06c-54.4-14.33-104.19-.15-104.68,0a1.69,1.69,0,1,1-1-3.25c.51-.15,51.16-14.59,106.51,0a1.7,1.7,0,0,1-.44,3.34Z"/><path class="cls-6" d="M776.2,1890.33c-3.68,0-6.78-2.29-8.67-4.44a9.4,9.4,0,0,1-6,1.43,14.18,14.18,0,0,1-7.82-3.89c-2.61,2.93-5.48,4.42-8.58,4.43h0c-4,0-7.32-2.56-9.11-4.33a10.87,10.87,0,0,1-7,4c-3.81.44-7.24-1.37-9.17-2.69a11.73,11.73,0,0,1-6.52,5.09,11.22,11.22,0,0,1-8.13-1,1.7,1.7,0,0,1-.8-1.77c.94-5,2-6.53,2.64-7.26,6.84-7.21,23-9.78,35.89-9.78,9,0,33.32,1.83,37.5,10.19a24.86,24.86,0,0,1,1.61,7,1.68,1.68,0,0,1-.82,1.68A9.58,9.58,0,0,1,776.2,1890.33Zm-8.34-8.45h.24a1.73,1.73,0,0,1,1.17.73c.17.26,4.06,5.88,9.15,3.86a17.64,17.64,0,0,0-1.12-4.7c-2.71-5.43-21.76-8.32-34.46-8.32-11.6,0-27.32,2.29-33.43,8.73-.19.19-.8,1.06-1.5,4.23a7.39,7.39,0,0,0,4.45.21c2.12-.61,3.95-2.34,5.42-5.13a1.7,1.7,0,0,1,1.21-.87,1.66,1.66,0,0,1,1.44.42s3.93,3.56,8.12,3.08c2.22-.27,4.2-1.68,5.9-4.2a1.71,1.71,0,0,1,1.35-.75,1.86,1.86,0,0,1,1.4.68s3.55,4.61,7.87,4.61h0c2.47,0,4.85-1.56,7.09-4.6a1.74,1.74,0,0,1,1.32-.69,1.8,1.8,0,0,1,1.36.62s3.15,3.78,7,4.15a6.61,6.61,0,0,0,4.93-1.69A1.71,1.71,0,0,1,767.86,1881.88Z"/><path class="cls-6" d="M781.23,1899.6a1.69,1.69,0,0,1-.53-.09c-34.65-11.46-75.13-.09-75.53,0a1.69,1.69,0,1,1-.94-3.25c.42-.12,41.87-11.77,77.54,0a1.7,1.7,0,0,1,1.07,2.15A1.68,1.68,0,0,1,781.23,1899.6Z"/><path class="cls-6" d="M704,1914.39a1.84,1.84,0,0,1-.33,0,1.82,1.82,0,0,1-1.48-1.74c.26-8.6,1.25-29,4.8-32.77,6.84-7.21,23-9.78,35.89-9.78,9,0,33.32,1.83,37.5,10.19,2.44,4.89,3.09,26.9,3.19,31.26a1.7,1.7,0,0,1-2.25,1.67c-10.72-3.74-27.45-5.45-38.44-5.45-5.55,0-24.7.47-38.19,6.5A1.62,1.62,0,0,1,704,1914.39Zm38.88-40.93c-11.6,0-27.32,2.29-33.43,8.73-1.66,1.75-3.21,13.33-3.78,28,13.85-5.38,31.8-5.82,37.21-5.82,10.87,0,26.17,1.52,37.24,4.88-.36-11.67-1.34-24.58-2.78-27.45C774.59,1876.35,755.54,1873.46,742.84,1873.46Z"/><text class="cls-12" transform="translate(697.42 2087.85)">9:15</text><text class="cls-7" transform="translate(687.71 2134.15)">CAKE</text><text class="cls-12" transform="translate(310.45 2293.19)">10.30</text><text class="cls-7" transform="translate(258.16 2332.91)">BOU<tspan class="cls-26" x="105.18" y="0">Q</tspan><tspan x="142.93" y="0">UET</tspan><tspan class="cls-27"><tspan x="54.64" y="48.71">T</tspan><tspan class="cls-25" x="84.64" y="48.71">OSS</tspan></tspan></text><path class="cls-28" d="M371.78,2082.58c-1.93,1.78-4.41,5.51-4.94,7.75,0,0-.08-10.37-2.61-12.15-3.06.47-7.74,9.71-7.74,9.71a19.63,19.63,0,0,0-.91-9c-5.62,3-7.48,10.72-8.67,15.78a13.22,13.22,0,1,0,25.73,6C373.84,2095.61,375.66,2087.72,371.78,2082.58Z"/><path class="cls-28" d="M343.22,2107.51c-.16,0-.32,0-.48,0l.05,0c2.4-2.05,3.89-3.52,3.56-6.52-.74-6.84-6-7-12.71-7.17s-13.56,1.83-15,8.52a26.35,26.35,0,0,0-.5,7.73h-.12c-5-.36-10,1.14-10.88,6.75-.73,4.81-.38,12.12,4.45,14.69a7.92,7.92,0,0,0,8.75-.74,8.66,8.66,0,0,0,4,5.45c4.18,2.22,9.53.56,10.95-4.06a24.62,24.62,0,0,1,1.11-3.34l.32.21c4.18,2.22,9.53.55,10.95-4.06.7-2.28.92-3.83,2.7-5.55s2.78-2.84,2.45-5.4C352.13,2108.15,348.19,2107.87,343.22,2107.51Z"/><path class="cls-28" d="M329.19,2116.36a2.41,2.41,0,0,0,3.51-1.31,3.41,3.41,0,0,1,.87-1.77,1.83,1.83,0,0,0,.79-1.74c-.25-1.86-1.51-1.95-3.11-2.07s-3.22.37-3.49,2.17C327.52,2113.19,327.64,2115.53,329.19,2116.36Z"/><path class="cls-28" d="M334.2,2106.74a5.5,5.5,0,0,0-3.86.94,7.3,7.3,0,0,0-3.14-.67c-2.31-.16-4.64.53-5,3.12-.27,1.8-.19,4.34,1,5.88-.21,2.19.1,5.09,2.13,6.17a3.49,3.49,0,0,0,5.06-1.87,5,5,0,0,1,1.25-2.57,7.35,7.35,0,0,0,.68-.72,3.37,3.37,0,0,0,4-2.24,4.91,4.91,0,0,1,1.25-2.56,2.63,2.63,0,0,0,1.14-2.5C338.32,2107,336.5,2106.91,334.2,2106.74Z"/><path class="cls-28" d="M337.79,2107.69c.11-1.77,0-5.58-1.47-6.9-3.1-2.87-8.52-1.28-11.85.48-3.87,2-3.7,6.08-2.17,9.63l.46,1c-3.58-.07-7,1.22-7.6,5.25-.56,3.71.83,10.39,5,10.6,13.11.66,11.65-9.93,12.14-8.54a5.81,5.81,0,0,0,8.56,2.81c3.65-2.13,3.7-7.78,3-11.47C343.31,2107.44,340.49,2108,337.79,2107.69Z"/><path class="cls-28" d="M345.64,2082.38a7.08,7.08,0,0,0-11-7.78,7.08,7.08,0,0,0-12.95,3.73,12.28,12.28,0,0,0,1.38,24.24,7.08,7.08,0,0,0,13.29,2.25,7.08,7.08,0,0,0,10-9,7.09,7.09,0,0,0-.76-13.46Z"/><path class="cls-28" d="M336.55,2088.09a4.79,4.79,0,1,1-5.88-3.35A4.78,4.78,0,0,1,336.55,2088.09Z"/><path class="cls-28" d="M339.07,2087.4a7.39,7.39,0,1,1-9.09-5.17A7.4,7.4,0,0,1,339.07,2087.4Z"/><path class="cls-28" d="M377.74,2089.86c3.44-19,20.77-18.55,20.77-18.55S397,2088.58,377.74,2089.86Z"/><line class="cls-28" x1="391.05" y1="2079.04" x2="377.74" y2="2089.86"/><path class="cls-28" d="M309.69,2109.05s-2.21-17.6-9.86-21.74-10.3,2.79-10.3,2.79c-3.24,6,3.44,9.91,3.44,9.91s-6.94-3.44-10.18,2.56c0,0-4.34,6,3.31,10.14S309.69,2109.05,309.69,2109.05Z"/><path class="cls-28" d="M373,2178.16c3.08-4.06,5.59-2.23,5.59-2.23l25.82,32.5s-4.12,17.87-15.81,13.83c-11.8-12.63-17.95,2-17.95,2Z"/><path class="cls-28" d="M381.76,2193.58c-.56-2.22-1.12-4.46-1.68-6.69"/><path class="cls-28" d="M389,2222.21l-4-16.08"/><path class="cls-28" d="M376.53,2180.13s41.87-15,12.31-91.75C388.84,2088.38,304.63,2123.1,376.53,2180.13Z"/><path class="cls-28" d="M363.49,2060.53a7.08,7.08,0,0,0-11-7.79,7.09,7.09,0,0,0-13,3.73,12.28,12.28,0,0,0,1.38,24.24,7.08,7.08,0,0,0,13.29,2.25,7.08,7.08,0,0,0,10-9,7.08,7.08,0,0,0-.76-13.45Z"/><path class="cls-28" d="M354.41,2066.24a4.79,4.79,0,1,1-5.88-3.35A4.8,4.8,0,0,1,354.41,2066.24Z"/><path class="cls-28" d="M356.92,2065.55a7.39,7.39,0,1,1-9.09-5.18A7.4,7.4,0,0,1,356.92,2065.55Z"/><path class="cls-28" d="M333,2069l-.48,0,.05-.05c2.4-2,3.89-3.51,3.56-6.52-.74-6.83-6-7-12.71-7.17s-13.56,1.84-15,8.52a26,26,0,0,0-.49,7.73h-.14c-5-.36-10,1.15-10.86,6.75-.74,4.81-.39,12.12,4.44,14.69a7.92,7.92,0,0,0,8.75-.74,8.64,8.64,0,0,0,4,5.45c4.17,2.22,9.53.55,10.94-4.06a25.09,25.09,0,0,1,1.11-3.34c.11.07.21.15.32.21,4.18,2.23,9.54.56,10.95-4.06.7-2.28.92-3.83,2.7-5.54s2.78-2.85,2.45-5.4C341.92,2069.68,338,2069.4,333,2069Z"/><path class="cls-28" d="M319,2077.89a2.41,2.41,0,0,0,3.51-1.3,3.47,3.47,0,0,1,.87-1.78,1.84,1.84,0,0,0,.79-1.74c-.25-1.86-1.51-2-3.11-2.06s-3.22.36-3.49,2.16C317.31,2074.72,317.42,2077.07,319,2077.89Z"/><path class="cls-28" d="M324,2068.27a5.42,5.42,0,0,0-3.85.95,7.38,7.38,0,0,0-3.15-.68c-2.31-.16-4.64.54-5,3.13-.28,1.8-.2,4.33,1,5.87-.21,2.19.1,5.09,2.13,6.18a3.49,3.49,0,0,0,5.06-1.88,5,5,0,0,1,1.25-2.57,6.37,6.37,0,0,0,.68-.72,3.36,3.36,0,0,0,4-2.23,4.9,4.9,0,0,1,1.25-2.57,2.59,2.59,0,0,0,1.13-2.5C328.11,2068.57,326.29,2068.44,324,2068.27Z"/><path class="cls-28" d="M327.58,2069.22c.11-1.77,0-5.58-1.47-6.9-3.1-2.87-8.52-1.27-11.85.48-3.87,2-3.69,6.09-2.17,9.64l.46,1c-3.58-.06-7,1.22-7.6,5.25-.56,3.71.83,10.39,5.05,10.6,13.11.66,11.65-9.92,12.14-8.53,1.22,3.52,5.41,4.65,8.56,2.81,3.65-2.13,3.71-7.78,3-11.47C333.1,2069,330.28,2069.56,327.58,2069.22Z"/><path class="cls-28" d="M317.39,2120.38c-12.65-14.58-27.32-5.36-27.32-5.36S300.17,2129.11,317.39,2120.38Z"/><line class="cls-28" x1="300.42" y1="2117.86" x2="317.39" y2="2120.38"/><path class="cls-28" d="M378.46,2179.14s-5.38-42.47-20.65-50.94-42.88-15.49-61.78,4C296,2132.24,317.85,2197.77,378.46,2179.14Z"/><polygon class="cls-28" points="370.77 2192.35 364.73 2187.55 375.88 2177.09 378.45 2179.14 370.77 2192.35"/><polygon class="cls-28" points="390.87 2187.3 393.91 2180.2 379.14 2176.27 377.84 2179.3 390.87 2187.3"/><path class="cls-28" d="M378.92,2182.3a1.78,1.78,0,0,1-1.3,2.17h0a1.77,1.77,0,0,1-2.17-1.29l-1.31-5.22a1.79,1.79,0,0,1,1.3-2.17h0a1.79,1.79,0,0,1,2.17,1.3Z"/><path class="cls-28" d="M382.4,2181.43a1.79,1.79,0,0,1-1.3,2.17h0a1.8,1.8,0,0,1-2.18-1.3l-1.31-5.21a1.79,1.79,0,0,1,1.3-2.17h0a1.8,1.8,0,0,1,2.18,1.3Z"/><path class="cls-28" d="M380.41,2087.18c-2.45,7.77-9.93,9.67-16.36,7.64s-11.46-7.87-9-15.64,19.43-17.39,19.43-17.39S382.86,2079.41,380.41,2087.18Z"/><path class="cls-28" d="M377.5,2069.13s-3.47,12.14-5.63,13.68"/><path class="cls-28" d="M368.37,2066.25s-4.12,11.94-3.24,14.44"/><path class="cls-28" d="M308.75,2088.05c1,2.45,3.56,6.11,5.46,7.4,0,0-9.7-3.65-12.27-1.93-.67,3,6.27,10.71,6.27,10.71a19.61,19.61,0,0,0-8.71-2.38c.74,6.3,7.31,10.83,11.61,13.77a13.22,13.22,0,0,0,14.9-21.84C321.66,2090.82,315,2086.28,308.75,2088.05Z"/><path class="cls-28" d="M357.44,2098.73a4.84,4.84,0,0,0-6.72-1.38,30.62,30.62,0,0,0-4.87,4.16,30.61,30.61,0,0,0-.91-6.35,4.84,4.84,0,0,0-9.34,2.57,30.4,30.4,0,0,0,2.46,5.92,31,31,0,0,0-6.32-1.1,4.85,4.85,0,0,0-.45,9.68,30.08,30.08,0,0,0,6.4-.51,30.58,30.58,0,0,0-3,5.68,4.84,4.84,0,1,0,9.07,3.41,31.42,31.42,0,0,0,1.49-6.24,31.16,31.16,0,0,0,4.46,4.61,4.85,4.85,0,1,0,6.05-7.57,30.11,30.11,0,0,0-5.47-3.35,30.15,30.15,0,0,0,5.76-2.82A4.84,4.84,0,0,0,357.44,2098.73Z"/><path class="cls-28" d="M348.28,2106.61a5,5,0,1,1-6.18-3.51A5,5,0,0,1,348.28,2106.61Z"/><line class="cls-29" x1="560.34" y1="429.47" x2="564.66" y2="2146.38"/></g></svg>