<svg xmlns="http://www.w3.org/2000/svg" viewBox="0 0 1280 800"><defs><style>.cls-1{font-size:30px;letter-spacing:0em;}.cls-1,.cls-14,.cls-15,.cls-16,.cls-26,.cls-5,.cls-6,.cls-7{fill:#4f563b;}.cls-1,.cls-14,.cls-16,.cls-7{font-family:AgathoLight, Agatho;}.cls-2,.cls-4{font-family:Times-BoldItalic, Times;font-weight:700;font-style:italic;}.cls-3,.cls-4{letter-spacing:0em;}.cls-15,.cls-6{font-size:14.46px;}.cls-15,.cls-26,.cls-6{font-family:MarienthalPersonalUse, Marienthal Personal Use;}.cls-19,.cls-6{letter-spacing:0.2em;}.cls-14,.cls-16,.cls-7{font-size:21.69px;}.cls-17,.cls-7{letter-spacing:0em;}.cls-8{letter-spacing:0.02em;}.cls-16,.cls-9{letter-spacing:0em;}.cls-10{letter-spacing:0.17em;}.cls-11{letter-spacing:0.2em;}.cls-12{letter-spacing:-0.03em;}.cls-13{font-size:11.36px;letter-spacing:0.2em;}.cls-14{letter-spacing:0em;}.cls-15,.cls-21{letter-spacing:0.2em;}.cls-18{letter-spacing:0.18em;}.cls-20{letter-spacing:0.17em;}.cls-22{fill:#fff;}.cls-22,.cls-23,.cls-25{stroke:#4f563b;stroke-miterlimit:10;}.cls-23{fill:#fdfefe;}.cls-24{letter-spacing:0.1em;}.cls-25{fill:none;}.cls-26{font-size:72px;letter-spacing:-0.04em;}.cls-27{letter-spacing:0em;}</style></defs><g id="Layer_3" data-name="Layer 3"><text class="cls-1" transform="translate(562.79 248.74)">27 <tspan class="cls-2" x="34.44" y="0">·</tspan><tspan class="cls-3" x="42.03" y="0" xml:space="preserve"> 05 </tspan><tspan class="cls-4" x="88.95" y="0">· </tspan><tspan class="cls-3" x="104.13" y="0">2022</tspan></text><path class="cls-5" d="M187.34,419.66a18.95,18.95,0,1,1,18.95-19A19,19,0,0,1,187.34,419.66Zm0-36.69a17.74,17.74,0,1,0,17.74,17.74A17.76,17.76,0,0,0,187.34,383Zm0,33a15.26,15.26,0,1,1,15.26-15.26A15.28,15.28,0,0,1,187.34,416Zm0-29.31a14.05,14.05,0,1,0,14,14A14.06,14.06,0,0,0,187.34,386.66Z"/><path class="cls-5" d="M151.8,440.29a19,19,0,1,1,18.95-19A19,19,0,0,1,151.8,440.29Zm0-36.7a17.75,17.75,0,1,0,17.74,17.75A17.76,17.76,0,0,0,151.8,403.59Zm0,33a15.26,15.26,0,1,1,15.26-15.25A15.27,15.27,0,0,1,151.8,436.59Zm0-29.3a14.05,14.05,0,1,0,14,14A14.06,14.06,0,0,0,151.8,407.29Z"/><path class="cls-5" d="M161.2,395.4H142.39a.61.61,0,0,1-.54-.35.6.6,0,0,1,.08-.64l3.12-3.7a.61.61,0,0,1,.46-.21h12.92a.63.63,0,0,1,.49.24l2.77,3.69a.64.64,0,0,1,.05.64A.6.6,0,0,1,161.2,395.4Zm-17.51-1.21H160l-1.87-2.48H145.79Z"/><path class="cls-5" d="M154.57,403.59h-5.71a.6.6,0,0,1-.48-.23l-6.46-8.19a.62.62,0,0,1-.07-.64.6.6,0,0,1,.54-.34H161.2a.61.61,0,0,1,.55.35.6.6,0,0,1-.08.64L155,403.37A.62.62,0,0,1,154.57,403.59Zm-5.42-1.21h5.13l5.66-7h-16.3Z"/><path class="cls-5" d="M148.39,395.4h0a.59.59,0,0,1-.46-.23L145,391.48a.61.61,0,0,1,.11-.85.61.61,0,0,1,.85.1l2.43,3.12,2.75-3.14a.61.61,0,0,1,.43-.21.56.56,0,0,1,.45.17l3.28,3.23,2.64-3.18a.6.6,0,0,1,.85-.08.61.61,0,0,1,.08.85l-3.06,3.69a.62.62,0,0,1-.43.22.57.57,0,0,1-.46-.17L151.66,392l-2.81,3.21A.59.59,0,0,1,148.39,395.4Z"/><path class="cls-5" d="M150.76,403.59a.61.61,0,0,1-.58-.43l-2.37-8.2a.6.6,0,0,1,.42-.74.59.59,0,0,1,.74.41l2.37,8.19a.61.61,0,0,1-.41.75Z"/><path class="cls-5" d="M152.55,403.59a.69.69,0,0,1-.2,0,.61.61,0,0,1-.37-.77l2.78-8.19a.62.62,0,0,1,.77-.38.61.61,0,0,1,.37.77l-2.78,8.19A.61.61,0,0,1,152.55,403.59Z"/><path class="cls-5" d="M140.8,391.28a.64.64,0,0,1-.37-.13l-3.37-2.6a.62.62,0,0,1-.11-.85.61.61,0,0,1,.85-.11l3.37,2.6a.6.6,0,0,1,.11.85A.63.63,0,0,1,140.8,391.28Z"/><path class="cls-5" d="M143.52,389.18a.59.59,0,0,1-.5-.28L139.83,384a.6.6,0,0,1,1-.65l3.19,4.93a.6.6,0,0,1-.18.83A.56.56,0,0,1,143.52,389.18Z"/><path class="cls-5" d="M151.8,387.37a.61.61,0,0,1-.61-.61v-9.23a.61.61,0,0,1,.61-.6.6.6,0,0,1,.6.6v9.23A.6.6,0,0,1,151.8,387.37Z"/><path class="cls-5" d="M147.76,388a.61.61,0,0,1-.59-.45L145.3,380a.61.61,0,0,1,.44-.73.63.63,0,0,1,.74.44l1.87,7.49a.61.61,0,0,1-.44.74Z"/><path class="cls-5" d="M162.79,391.28a.59.59,0,0,1-.47-.24.61.61,0,0,1,.1-.85l3.38-2.6a.6.6,0,0,1,.73,1l-3.37,2.6A.64.64,0,0,1,162.79,391.28Z"/><path class="cls-5" d="M160.07,389.18a.55.55,0,0,1-.32-.1.6.6,0,0,1-.18-.83l3.19-4.93a.6.6,0,0,1,1,.65l-3.19,4.93A.61.61,0,0,1,160.07,389.18Z"/><path class="cls-5" d="M155.84,388h-.15a.61.61,0,0,1-.44-.74l1.87-7.49a.61.61,0,0,1,.73-.44.6.6,0,0,1,.44.73l-1.87,7.5A.6.6,0,0,1,155.84,388Z"/><path class="cls-5" d="M252,440.17a.6.6,0,0,1-.58-.46l-8.87-34.93a.61.61,0,0,1,.06-.46A.63.63,0,0,1,243,404l38.78-9.81a.62.62,0,0,1,.74.44l8.87,34.93a.62.62,0,0,1-.44.74l-38.79,9.81Zm-8.13-35.1,8.57,33.76L290,429.32l-8.58-33.77Z"/><path class="cls-5" d="M255,435.62a.61.61,0,0,1-.31-.09.61.61,0,0,1-.27-.37l-6.75-26.67a.6.6,0,0,1,.44-.74L279,399.92a.68.68,0,0,1,.46.07.63.63,0,0,1,.27.37L286.48,427a.6.6,0,0,1-.44.73L255.1,435.6Zm-6-26.85,6.45,25.51,29.77-7.53-6.45-25.51Z"/><path class="cls-5" d="M312,428.22l-.21,0-24-8.59a.58.58,0,0,1-.38-.42l-2.82-11.13a.59.59,0,0,1,0-.35l6.05-16.94a.58.58,0,0,1,.31-.34.61.61,0,0,1,.46,0l30.06,10.74a.6.6,0,0,1,.36.77l-9.25,25.91A.6.6,0,0,1,312,428.22Zm-23.53-9.65,23.16,8.28,8.85-24.78L291.6,391.74l-5.78,16.19Z"/><path class="cls-5" d="M314.29,433.35l-.21,0-25-9a.61.61,0,0,1-.38-.42L282.82,401a.59.59,0,0,1,0-.35l5.65-15.82a.6.6,0,0,1,.77-.37l37.68,13.46a.61.61,0,0,1,.34.31.57.57,0,0,1,0,.46L314.86,433A.6.6,0,0,1,314.29,433.35Zm-24.54-10.1L313.93,432l12-33.12-36.54-13.05L284,400.89Z"/><path class="cls-5" d="M622.49,446.58a25.83,25.83,0,1,1,25.82-25.82A25.86,25.86,0,0,1,622.49,446.58Zm0-50.44a24.62,24.62,0,1,0,24.61,24.62A24.64,24.64,0,0,0,622.49,396.14Z"/><path class="cls-5" d="M622.49,443.92a23.17,23.17,0,1,1,23.16-23.16A23.19,23.19,0,0,1,622.49,443.92Zm0-45.12a22,22,0,1,0,22,22A22,22,0,0,0,622.49,398.8Z"/><path class="cls-5" d="M622.49,438.3A17.55,17.55,0,1,1,640,420.76,17.56,17.56,0,0,1,622.49,438.3Zm0-33.88a16.34,16.34,0,1,0,16.34,16.34A16.36,16.36,0,0,0,622.49,404.42Z"/><path class="cls-5" d="M669.57,421a2.72,2.72,0,0,1-2.44-1.81l-8-18.38c-.88-.39-3.62-2-5.31-7-1.3-3.87-2.42-15-.57-15.69.54-.21,1,.14,1.42,1.05.2.46,15.22,34.83,16.68,38.16h0c.77,1.77.07,3-.91,3.47A2.1,2.1,0,0,1,669.57,421Zm-16-41.15a39.51,39.51,0,0,0,1.34,13.61c1.77,5.25,4.77,6.3,4.8,6.31a.67.67,0,0,1,.37.33l8.13,18.61c.42,1,1.18,1.23,1.69,1s.67-1,.28-1.87h0C668.8,414.61,654.73,382.4,653.6,379.83Z"/><path class="cls-5" d="M657.7,426.09h-.19a1.49,1.49,0,0,1-1.31-.86l-12.14-27.77a3.84,3.84,0,0,1-2.39,0,3.19,3.19,0,0,1-1.87-1.87l-3.56-8.14a1.84,1.84,0,0,1,.15-1.85,2,2,0,0,1,1.79-.75,1.81,1.81,0,0,1,1.48,1.11l2.12,4.85s.09,0,.12-.07L639.74,386a1.91,1.91,0,0,1,.9-2.61,1.86,1.86,0,0,1,2.46,1.15l2.12,4.85s.06-.07.07-.1l-2.11-4.79a1.86,1.86,0,0,1,1-2.49,1.79,1.79,0,0,1,2.41,1l3.56,8.14a3.16,3.16,0,0,1,.09,2.55,4.34,4.34,0,0,1-1.93,2l12.14,27.76c.38.89-.22,1.89-1.47,2.43A3.24,3.24,0,0,1,657.7,426.09Zm-13.31-30,.2,0a.66.66,0,0,1,.35.33l12.37,28.29s.05.12.3.14a2,2,0,0,0,.89-.18c.58-.26.92-.66.84-.85L647,395.56a.66.66,0,0,1,0-.48.61.61,0,0,1,.34-.33,3.51,3.51,0,0,0,1.82-1.57,2,2,0,0,0-.09-1.6l-3.55-8.14a.59.59,0,0,0-.83-.37.67.67,0,0,0-.38.9l2.12,4.85a1.24,1.24,0,0,1-.72,1.61,1.15,1.15,0,0,1-1.57-.61L642,385c-.2-.47-.54-.67-.87-.52a.72.72,0,0,0-.27,1l2.12,4.85a1.16,1.16,0,0,1-.62,1.57,1.25,1.25,0,0,1-1.67-.56l-2.13-4.86a.59.59,0,0,0-.51-.39.75.75,0,0,0-.68.27.65.65,0,0,0,0,.65l3.56,8.14a2,2,0,0,0,1.16,1.21,2.94,2.94,0,0,0,2-.2A.67.67,0,0,1,644.39,396.09Zm.83-6.75h0Z"/><path class="cls-5" d="M510.09,424.48a6,6,0,0,1-1.27-.13c-3.41-.68-5.37-3.89-5-8.17s3.73-22.53,3.87-23.3a.59.59,0,0,1,.53-.49c.39,0,9.49-.92,13.59,3.68a.59.59,0,0,1,.15.51c-.13.7-3.12,17.3-4.34,21.79A8,8,0,0,1,510.09,424.48Zm-1.3-30.93c-.53,2.92-3.43,18.86-3.76,22.74-.32,3.68,1.22,6.32,4,6.88a6.61,6.61,0,0,0,7.39-5.12c1.12-4.11,3.85-19.08,4.27-21.39C517.41,393.27,510.6,393.44,508.79,393.55Z"/><path class="cls-5" d="M504.8,443.85l-.12,0a.6.6,0,0,1-.47-.71l4.14-19.48a.6.6,0,1,1,1.18.25l-4.14,19.48A.61.61,0,0,1,504.8,443.85Z"/><path class="cls-5" d="M508.8,445.13l-.15,0-7.81-2a.6.6,0,0,1,.29-1.17l7.82,2a.61.61,0,0,1-.15,1.19Z"/><path class="cls-5" d="M510.09,424.48a6,6,0,0,1-1.27-.13c-3.41-.68-5.37-3.89-5-8.17.12-1.33.53-4.1,1.22-8.24a.61.61,0,0,1,.59-.51c10.89,0,14.22-6.4,14.36-6.67a.6.6,0,0,1,1.13.38c-.45,2.39-2.75,14.45-3.5,17.23A8,8,0,0,1,510.09,424.48Zm-3.94-15.84c-.64,3.83-1,6.4-1.12,7.65-.32,3.68,1.22,6.32,4,6.88a6.61,6.61,0,0,0,7.39-5.12c.51-1.86,1.8-8.33,3-14.55C517.45,405.62,513.41,408.51,506.15,408.64Z"/><path class="cls-5" d="M533.54,424.48a8,8,0,0,1-7.53-6.11c-1.21-4.49-4.21-21.09-4.34-21.79a.59.59,0,0,1,.15-.51c4.11-4.6,13.21-3.72,13.59-3.68a.58.58,0,0,1,.53.49c.14.77,3.49,19,3.87,23.3s-1.59,7.49-5,8.17A6,6,0,0,1,533.54,424.48Zm-10.63-27.82c.42,2.31,3.15,17.28,4.27,21.39a6.6,6.6,0,0,0,7.39,5.12c2.81-.56,4.36-3.2,4-6.88-.33-3.88-3.23-19.82-3.76-22.74C533,393.44,526.21,393.28,522.91,396.66Z"/><path class="cls-5" d="M538.83,443.85a.61.61,0,0,1-.59-.48l-4.14-19.48a.6.6,0,1,1,1.18-.25l4.14,19.48a.6.6,0,0,1-.47.71Z"/><path class="cls-5" d="M534.83,445.13a.6.6,0,0,1-.14-1.19l7.81-2a.61.61,0,0,1,.73.44.6.6,0,0,1-.44.73l-7.81,2Z"/><path class="cls-5" d="M533.54,424.48a8,8,0,0,1-7.53-6.11c-.75-2.78-3-14.84-3.5-17.23a.6.6,0,0,1,1.13-.38c.14.27,3.47,6.67,14.36,6.67a.61.61,0,0,1,.59.51c.7,4.16,1.1,6.93,1.22,8.24.37,4.28-1.59,7.49-5,8.17A6,6,0,0,1,533.54,424.48Zm-9.35-21c1.19,6.22,2.48,12.69,3,14.55a6.6,6.6,0,0,0,7.39,5.12c2.81-.56,4.36-3.2,4-6.88-.1-1.23-.48-3.81-1.11-7.65C530.22,408.51,526.18,405.62,524.19,403.5Z"/><path class="cls-5" d="M520.53,393a.58.58,0,0,1-.37-.13l-4.69-3.64a.6.6,0,1,1,.74-.95L520.9,392a.6.6,0,0,1-.37,1.08Z"/><path class="cls-5" d="M522.26,392.08a.6.6,0,0,1-.59-.51l-1.29-8.15a.61.61,0,0,1,1.2-.19l1.28,8.15a.6.6,0,0,1-.5.69Z"/><path class="cls-5" d="M524.23,392.08a.59.59,0,0,1-.41-.16.6.6,0,0,1,0-.85l4.32-4.75a.61.61,0,0,1,.9.82l-4.33,4.74A.6.6,0,0,1,524.23,392.08Z"/><path class="cls-5" d="M1001.88,445.58h-50a.61.61,0,0,1-.43-.19.62.62,0,0,1-.17-.44c.05-1.79.54-17.57,3-20.13,4.27-4.55,14.5-6.16,22.65-6.16,5.31,0,21,1.15,23.59,6.3,1.61,3.25,2,19.32,2,20a.61.61,0,0,1-.17.43A.59.59,0,0,1,1001.88,445.58Zm-49.36-1.21h48.74c-.13-5-.67-16.48-1.86-18.87-1.91-3.85-14.56-5.64-22.51-5.64s-17.76,1.52-21.77,5.78C953.58,427.28,952.73,437.5,952.52,444.37Z"/><path class="cls-5" d="M998.27,430.74a7.44,7.44,0,0,1-5.47-3,5.69,5.69,0,0,1-3.91,1.08,9,9,0,0,1-5.1-2.73c-1.66,2-3.49,3.07-5.46,3.07h0c-2.73,0-4.91-2-5.86-3a6.69,6.69,0,0,1-4.54,2.8A8.69,8.69,0,0,1,962,427a7.26,7.26,0,0,1-4.18,3.51,6.65,6.65,0,0,1-4.83-.61.59.59,0,0,1-.28-.63c.44-2.36.94-3.77,1.57-4.43,4.27-4.55,14.5-6.17,22.65-6.17,5.31,0,21,1.16,23.59,6.31h0a15.78,15.78,0,0,1,1,4.34.6.6,0,0,1-.29.6A5.63,5.63,0,0,1,998.27,430.74Zm-5.35-4.47H993a.57.57,0,0,1,.41.26c.13.18,3,4.4,6.79,2.51a13.37,13.37,0,0,0-.81-3.55h0c-1.91-3.85-14.56-5.64-22.51-5.64s-17.76,1.52-21.77,5.78c-.24.26-.7,1-1.18,3.38a5.39,5.39,0,0,0,3.52.31,6.52,6.52,0,0,0,3.79-3.56.62.62,0,0,1,1-.16s2.7,2.44,5.57,2.11a5.85,5.85,0,0,0,4.14-2.92.56.56,0,0,1,.48-.26.55.55,0,0,1,.5.24s2.41,3.17,5.42,3.17h0c1.74,0,3.4-1.08,4.94-3.17a.58.58,0,0,1,.47-.24.59.59,0,0,1,.48.22s2.14,2.59,4.8,2.85a4.68,4.68,0,0,0,3.52-1.2A.59.59,0,0,1,992.92,426.27Z"/><path class="cls-5" d="M1001.52,437.32a.39.39,0,0,1-.15,0c-24.71-6.65-48.58-.52-48.82-.46a.6.6,0,1,1-.31-1.16c.24-.07,24.43-6.28,49.44.46a.6.6,0,0,1-.16,1.18Z"/><path class="cls-5" d="M993.59,411.65a5.86,5.86,0,0,1-4.26-2.27,4.51,4.51,0,0,1-3,.78,6.94,6.94,0,0,1-3.91-2,5.62,5.62,0,0,1-4.23,2.3h0a6.7,6.7,0,0,1-4.53-2.26,5.27,5.27,0,0,1-3.49,2.08,6.77,6.77,0,0,1-4.58-1.43,5.72,5.72,0,0,1-3.23,2.63,5.24,5.24,0,0,1-3.84-.49.6.6,0,0,1-.29-.63,7.43,7.43,0,0,1,1.25-3.47c3.33-3.52,11.28-4.78,17.61-4.78,4.12,0,16.35.91,18.36,4.92h0a12.31,12.31,0,0,1,.78,3.38.61.61,0,0,1-.3.6A4.53,4.53,0,0,1,993.59,411.65Zm-4.14-3.72h.09a.61.61,0,0,1,.42.26c.09.14,2.21,3.21,5,1.92a9.55,9.55,0,0,0-.6-2.58c-1.45-2.9-11.17-4.25-17.28-4.25s-13.66,1.16-16.73,4.4a5.46,5.46,0,0,0-.85,2.41,4,4,0,0,0,2.54.18,4.89,4.89,0,0,0,2.83-2.66.62.62,0,0,1,.43-.31.61.61,0,0,1,.52.15s2,1.83,4.2,1.59a4.39,4.39,0,0,0,3.09-2.18.63.63,0,0,1,.49-.27.59.59,0,0,1,.5.24s1.82,2.38,4.08,2.38h0c1.3,0,2.54-.81,3.7-2.37a.6.6,0,0,1,.47-.25.68.68,0,0,1,.48.22,6.4,6.4,0,0,0,3.62,2.14,3.49,3.49,0,0,0,2.62-.89A.62.62,0,0,1,989.45,407.93Z"/><path class="cls-5" d="M957.74,423.56a.56.56,0,0,1-.31-.09.6.6,0,0,1-.29-.53c.1-3.31.55-14.23,2.31-16.08,3.33-3.52,11.28-4.78,17.61-4.78,4.12,0,16.35.91,18.36,4.92,1.19,2.38,1.51,13.24,1.56,15.39a.65.65,0,0,1-.27.53.6.6,0,0,1-.58.05c-4.79-2.13-13.34-3.11-19.24-3.11-2.86,0-12.67.27-18.86,3.62A.6.6,0,0,1,957.74,423.56Zm19.32-20.27c-6.08,0-13.66,1.16-16.73,4.4-1,1.08-1.72,8-2,14.26,6.44-3.05,15.71-3.29,18.51-3.29,5.69,0,13.8.89,18.86,2.85-.15-4.81-.58-12.3-1.41-14C992.89,404.64,983.17,403.29,977.06,403.29Z"/><path class="cls-5" d="M996,416.86l-.16,0c-19.37-5.11-37.11-.06-37.28,0a.59.59,0,0,1-.75-.41.61.61,0,0,1,.41-.75c.18-.05,18.22-5.19,37.93,0a.61.61,0,0,1-.15,1.19Z"/><path class="cls-5" d="M988.94,397.09a4.32,4.32,0,0,1-3.09-1.58,3.36,3.36,0,0,1-2.15.51,5,5,0,0,1-2.78-1.39,4.07,4.07,0,0,1-3.06,1.58h0a4.81,4.81,0,0,1-3.24-1.54,3.86,3.86,0,0,1-2.51,1.41,5,5,0,0,1-3.26-1,4.21,4.21,0,0,1-2.32,1.82,4,4,0,0,1-2.9-.37.61.61,0,0,1-.29-.63,4.93,4.93,0,0,1,.95-2.58c2.43-2.57,8.2-3.49,12.78-3.49,3.21,0,11.86.66,13.35,3.63A8.77,8.77,0,0,1,991,396a.62.62,0,0,1-.3.61A3.47,3.47,0,0,1,988.94,397.09Zm-3-3h.09a.58.58,0,0,1,.41.25c.06.1,1.45,2.1,3.26,1.38a6.27,6.27,0,0,0-.4-1.67c-1-1.94-7.75-3-12.27-3-4.13,0-9.73.82-11.91,3.11a3.79,3.79,0,0,0-.53,1.51,2.62,2.62,0,0,0,1.58.07,3.34,3.34,0,0,0,1.93-1.82.63.63,0,0,1,.44-.32.61.61,0,0,1,.51.16,4.29,4.29,0,0,0,2.89,1.09,3,3,0,0,0,2.1-1.49.63.63,0,0,1,.48-.27.72.72,0,0,1,.5.24,4.21,4.21,0,0,0,2.8,1.64h0a3.31,3.31,0,0,0,2.53-1.63.62.62,0,0,1,.47-.25.64.64,0,0,1,.48.22,4.38,4.38,0,0,0,2.49,1.48,2.4,2.4,0,0,0,1.76-.6A.57.57,0,0,1,986,394.08Z"/><path class="cls-5" d="M990.73,400.39l-.19,0c-12.34-4.08-26.75,0-26.9,0a.6.6,0,0,1-.74-.42.59.59,0,0,1,.41-.74c.15,0,14.91-4.19,27.61,0a.61.61,0,0,1-.19,1.18Z"/><path class="cls-5" d="M963.21,405.66h-.12a.65.65,0,0,1-.52-.62c.09-3.07.44-10.34,1.71-11.67,2.43-2.57,8.2-3.49,12.78-3.49,3.21,0,11.86.66,13.35,3.63.87,1.75,1.1,9.58,1.14,11.14a.6.6,0,0,1-.8.59,48.18,48.18,0,0,0-13.69-1.94c-2,0-8.8.17-13.6,2.32A.7.7,0,0,1,963.21,405.66Zm13.85-14.58c-4.13,0-9.73.82-11.91,3.11-.59.63-1.14,4.75-1.34,10,4.93-1.92,11.32-2.08,13.25-2.08a50.71,50.71,0,0,1,13.26,1.74c-.13-4.16-.48-8.75-1-9.77C988.37,392.11,981.58,391.08,977.06,391.08Z"/><text class="cls-6" transform="translate(119.48 509.41)">CEREMONY</text><text class="cls-7" transform="translate(145.71 495.26)">4:<tspan class="cls-8" x="14.4" y="0">0</tspan><tspan class="cls-9" x="26.02" y="0">0</tspan></text><text class="cls-7" transform="translate(264.03 547.3)">4:30</text><text class="cls-6" transform="translate(251.78 563.93)">PH<tspan class="cls-10" x="24.58" y="0">OT</tspan><tspan class="cls-11" x="48.11" y="0">OS</tspan></text><text class="cls-7" transform="translate(381.31 495.27)">5:<tspan class="cls-8" x="14.23" y="0">0</tspan><tspan class="cls-9" x="25.85" y="0">0</tspan></text><text class="cls-6" transform="translate(342.97 509.41)">L<tspan class="cls-12" x="10.47" y="0">A</tspan><tspan x="20.57" y="0">WN </tspan><tspan class="cls-10" x="56.8" y="0">G</tspan><tspan x="68.25" y="0">AMES</tspan><tspan class="cls-13"><tspan x="46.27" y="13.63">and</tspan></tspan><tspan x="17.38" y="30.98">CANAPES</tspan></text><text class="cls-14" transform="translate(614.64 495.27)">7.30</text><text class="cls-15" transform="translate(607.34 509.41)">DINNER</text><text class="cls-7" transform="translate(724.76 547.3)">8:10</text><text class="cls-6" transform="translate(699.94 564.52)">SPEECHES</text><rect class="cls-5" x="98.41" y="461.52" width="1071.78" height="2.43"/><rect class="cls-5" x="283.66" y="463.62" width="1.87" height="54.31"/><rect class="cls-5" x="519.89" y="463.62" width="1.87" height="54.31"/><rect class="cls-5" x="741.2" y="463.62" width="1.87" height="54.31"/><text class="cls-16" transform="translate(501.06 547.3)">6:<tspan class="cls-8" x="14.2" y="0">0</tspan><tspan class="cls-17" x="25.83" y="0">0</tspan></text><text class="cls-6" transform="translate(470.25 563.93)">RECEIPTION<tspan x="-1.39" y="17.35">COMMENCES</tspan></text><rect class="cls-5" x="977.62" y="463.44" width="1.87" height="54.31"/><text class="cls-7" transform="translate(1065.32 495.27)">10.30</text><text class="cls-15" transform="translate(1046.7 509.41)">BOU<tspan class="cls-18" x="37.46" y="0">Q</tspan><tspan class="cls-19" x="50.9" y="0">UET</tspan><tspan class="cls-20"><tspan x="19.46" y="17.35">T</tspan><tspan class="cls-21" x="30.14" y="17.35">OSS</tspan></tspan></text><path class="cls-22" d="M1085.34,388.68a7.2,7.2,0,0,0-1.76,2.76s0-3.69-.93-4.32c-1.09.16-2.76,3.45-2.76,3.45a7,7,0,0,0-.32-3.2c-2,1.06-2.67,3.82-3.09,5.62a4.71,4.71,0,0,0,9.16,2.16C1086.07,393.32,1086.72,390.51,1085.34,388.68Z"/><path class="cls-22" d="M1075.17,397.56H1075s0,0,0,0c.86-.73,1.39-1.25,1.27-2.32-.26-2.43-2.15-2.48-4.53-2.55s-4.82.65-5.33,3a9.57,9.57,0,0,0-.17,2.76h0c-1.78-.13-3.57.41-3.87,2.41-.26,1.71-.13,4.31,1.59,5.23a2.82,2.82,0,0,0,3.11-.26,3.06,3.06,0,0,0,1.44,1.93,2.68,2.68,0,0,0,3.9-1.44,9.79,9.79,0,0,1,.39-1.19l.12.07a2.68,2.68,0,0,0,3.9-1.44,3.69,3.69,0,0,1,1-2,2,2,0,0,0,.87-1.92C1078.34,397.79,1076.94,397.69,1075.17,397.56Z"/><path class="cls-22" d="M1070.17,400.71a.85.85,0,0,0,1.25-.46,1.2,1.2,0,0,1,.31-.64c.2-.19.32-.32.28-.61-.09-.67-.54-.7-1.11-.74s-1.14.13-1.24.77S1069.62,400.42,1070.17,400.71Z"/><path class="cls-22" d="M1072,397.29a1.91,1.91,0,0,0-1.37.33,2.77,2.77,0,0,0-1.12-.24c-.82-.06-1.65.19-1.79,1.12a2.9,2.9,0,0,0,.36,2.09c-.08.78,0,1.81.75,2.2a1.25,1.25,0,0,0,1.81-.67,1.76,1.76,0,0,1,.44-.92,1.82,1.82,0,0,0,.24-.25,1.21,1.21,0,0,0,1.43-.8,1.73,1.73,0,0,1,.44-.91.94.94,0,0,0,.41-.89C1073.42,397.39,1072.77,397.35,1072,397.29Z"/><path class="cls-22" d="M1073.23,397.62a3.77,3.77,0,0,0-.52-2.45c-1.11-1-3-.46-4.22.17-1.38.72-1.32,2.16-.77,3.43,0,.13.11.25.16.37-1.28,0-2.49.44-2.71,1.87s.3,3.7,1.8,3.78c4.67.23,4.15-3.54,4.32-3a2.08,2.08,0,0,0,3,1c1.3-.76,1.32-2.77,1.07-4.09C1075.2,397.53,1074.19,397.74,1073.23,397.62Z"/><path class="cls-22" d="M1076,388.61a5.53,5.53,0,1,0-10.36,3,6.65,6.65,0,1,0,10.36-3Z"/><path class="cls-22" d="M1072.79,390.64a1.71,1.71,0,1,1-2.09-1.19A1.71,1.71,0,0,1,1072.79,390.64Z"/><path class="cls-22" d="M1073.69,390.4a2.63,2.63,0,1,1-3.24-1.84A2.63,2.63,0,0,1,1073.69,390.4Z"/><path class="cls-22" d="M1087.46,391.27a7.52,7.52,0,0,1,7.4-6.6A7.52,7.52,0,0,1,1087.46,391.27Z"/><line class="cls-22" x1="1092.2" y1="387.42" x2="1087.46" y2="391.27"/><path class="cls-22" d="M1063.23,398.11s-.79-6.27-3.52-7.74-3.67,1-3.67,1c-1.15,2.13,1.23,3.53,1.23,3.53s-2.47-1.22-3.62.91c0,0-1.55,2.14,1.17,3.61S1063.23,398.11,1063.23,398.11Z"/><path class="cls-22" d="M1085.76,422.72c1.09-1.44,2-.79,2-.79l9.2,11.57s-1.47,6.37-5.64,4.93c-4.2-4.5-6.39.73-6.39.73Z"/><path class="cls-22" d="M1088.89,428.21l-.6-2.38"/><path class="cls-22" d="M1091.46,438.41c-.53-2.09-.92-3.63-1.44-5.73"/><path class="cls-22" d="M1087,423.42s14.91-5.35,4.38-32.67C1091.41,390.75,1061.42,403.11,1087,423.42Z"/><path class="cls-22" d="M1082.39,380.83a5.53,5.53,0,1,0-10.37,3,4.38,4.38,0,0,0,7.06,5,4.38,4.38,0,0,0,3.31-8Z"/><path class="cls-22" d="M1079.15,382.86a1.71,1.71,0,1,1-2.09-1.19A1.71,1.71,0,0,1,1079.15,382.86Z"/><path class="cls-22" d="M1080.05,382.62a2.63,2.63,0,1,1-3.24-1.85A2.63,2.63,0,0,1,1080.05,382.62Z"/><path class="cls-22" d="M1071.53,383.86h-.17l0,0c.85-.72,1.38-1.25,1.27-2.32-.27-2.43-2.15-2.48-4.53-2.55s-4.83.65-5.33,3a9.56,9.56,0,0,0-.18,2.76h0c-1.78-.12-3.57.41-3.87,2.41-.26,1.71-.14,4.31,1.58,5.23a2.82,2.82,0,0,0,3.12-.26,3.09,3.09,0,0,0,1.43,1.94,2.69,2.69,0,0,0,3.9-1.45,9.79,9.79,0,0,1,.39-1.19l.12.07a2.68,2.68,0,0,0,3.9-1.44,3.81,3.81,0,0,1,1-2,2,2,0,0,0,.87-1.93C1074.7,384.09,1073.3,384,1071.53,383.86Z"/><path class="cls-22" d="M1066.53,387a.85.85,0,0,0,1.25-.46,1.28,1.28,0,0,1,.31-.64c.2-.19.32-.32.28-.61-.08-.67-.53-.7-1.1-.74s-1.15.13-1.25.77S1066,386.72,1066.53,387Z"/><path class="cls-22" d="M1068.32,383.59a1.94,1.94,0,0,0-1.38.33,2.7,2.7,0,0,0-1.12-.24c-.82-.06-1.65.19-1.79,1.12a2.89,2.89,0,0,0,.36,2.09c-.08.78,0,1.81.76,2.2a1.24,1.24,0,0,0,1.8-.67,1.78,1.78,0,0,1,.45-.92l.24-.25a1.2,1.2,0,0,0,1.42-.8,1.71,1.71,0,0,1,.45-.91c.28-.28.46-.47.4-.89C1069.79,383.69,1069.14,383.65,1068.32,383.59Z"/><path class="cls-22" d="M1069.6,383.92a3.83,3.83,0,0,0-.53-2.45c-1.1-1-3-.46-4.22.17-1.38.72-1.31,2.17-.77,3.43l.16.37c-1.27,0-2.49.44-2.7,1.87s.29,3.7,1.8,3.78c4.67.23,4.15-3.54,4.32-3a2.08,2.08,0,0,0,3,1c1.3-.76,1.32-2.77,1.07-4.09C1071.56,383.84,1070.56,384,1069.6,383.92Z"/><path class="cls-22" d="M1066,402.14a7.52,7.52,0,0,0-9.73-1.9A7.51,7.51,0,0,0,1066,402.14Z"/><line class="cls-22" x1="1059.92" y1="401.25" x2="1065.97" y2="402.14"/><path class="cls-22" d="M1087.71,423.07s-1.91-15.12-7.35-18.14-15.27-5.52-22,1.44C1058.36,406.37,1066.13,429.7,1087.71,423.07Z"/><polygon class="cls-22" points="1084.98 427.77 1082.83 426.06 1086.8 422.34 1087.71 423.07 1084.98 427.77"/><polygon class="cls-22" points="1092.13 425.98 1093.22 423.45 1087.96 422.05 1087.49 423.13 1092.13 425.98"/><path class="cls-22" d="M1087.88,424.2a.63.63,0,0,1-.46.77h0a.64.64,0,0,1-.78-.46l-.46-1.86a.63.63,0,0,1,.46-.77h0a.63.63,0,0,1,.77.46Z"/><path class="cls-22" d="M1089.12,423.89a.64.64,0,0,1-.47.77h0a.64.64,0,0,1-.77-.46l-.47-1.86a.64.64,0,0,1,.47-.77h0a.63.63,0,0,1,.77.46Z"/><path class="cls-22" d="M1088.41,390.32c-.87,2.77-3.54,3.44-5.82,2.72s-4.09-2.8-3.22-5.57,6.92-6.19,6.92-6.19S1089.28,387.55,1088.41,390.32Z"/><path class="cls-22" d="M1087.38,383.89s-1.24,4.33-2,4.88"/><path class="cls-22" d="M1084.12,382.87s-1.46,4.25-1.15,5.14"/><path class="cls-22" d="M1062.89,390.63a7.23,7.23,0,0,0,1.94,2.64s-3.45-1.31-4.37-.69c-.23,1.07,2.24,3.81,2.24,3.81a7.09,7.09,0,0,0-3.1-.85c.26,2.25,2.6,3.86,4.13,4.91a4.71,4.71,0,0,0,5.31-7.78C1067.49,391.62,1065.1,390,1062.89,390.63Z"/><path class="cls-22" d="M1080.23,394.43a1.73,1.73,0,0,0-2.39-.49,11.24,11.24,0,0,0-1.74,1.48,10.33,10.33,0,0,0-.32-2.26,1.73,1.73,0,0,0-3.33.92,11.43,11.43,0,0,0,.88,2.11,10.54,10.54,0,0,0-2.25-.39,1.72,1.72,0,1,0-.16,3.44,11.14,11.14,0,0,0,2.28-.18,10.16,10.16,0,0,0-1.07,2,1.73,1.73,0,0,0,3.23,1.22,11.27,11.27,0,0,0,.53-2.23,11,11,0,0,0,1.59,1.64,1.72,1.72,0,1,0,2.15-2.69,10,10,0,0,0-2-1.19,11.24,11.24,0,0,0,2.06-1A1.73,1.73,0,0,0,1080.23,394.43Z"/><path class="cls-22" d="M1077,397.24a1.79,1.79,0,1,1-2.2-1.25A1.79,1.79,0,0,1,1077,397.24Z"/><text class="cls-7" transform="translate(961.8 547.3)">9:15</text><text class="cls-6" transform="translate(958.34 563.79)">CAKE</text><path class="cls-23" d="M745.15,412.23C745.7,414,751.3,432,758,430s1.48-20.06.94-21.87-4.07-2.34-7.87-1.2S744.61,410.43,745.15,412.23Z"/><path class="cls-23" d="M745.15,412.23c.55,1.81,4.07,2.35,7.88,1.2s6.44-3.53,5.9-5.34-4.07-2.34-7.87-1.2S744.61,410.43,745.15,412.23Z"/><path class="cls-23" d="M749.38,419.24c.39,1.28,2.86,8.78,7.6,7.36s2.54-9,2.16-10.29-2.88-1.67-5.58-.86S749,418,749.38,419.24Z"/><path class="cls-23" d="M768.23,439.42c.35,1.16-2.4,3-6.13,4.16s-7.06,1.11-7.41-.05,2.39-3,6.13-4.15S767.87,438.26,768.23,439.42Z"/><path class="cls-23" d="M760.45,441l-3.31-10.93A3.15,3.15,0,0,0,758,430a3.71,3.71,0,0,0,.76-.33l3.51,11.6"/><path class="cls-23" d="M753.56,415.45c2.32-.69,4.48-.51,5.29.37-.87.7-1.9,1.59-3.24,2.7a8.19,8.19,0,0,1-5.72,2.18c-.26-.66-.43-1.2-.51-1.46C749,418,750.87,416.26,753.56,415.45Z"/><path class="cls-23" d="M746.35,372.11l-2,4.23c-.16.49-1.41.54-2.79.1s-2.39-1.19-2.23-1.68l.78-4.61Z"/><path class="cls-23" d="M740.17,370.17c-.19.6,1,1.52,2.73,2.05s3.22.47,3.41-.13-1-1.51-2.73-2S740.36,369.57,740.17,370.17Z"/><path class="cls-23" d="M734.37,399.24c9.51,3,8,12.32,7.34,14.44L732,444.62c-.67,2.12-6.05,2.31-12,.43s-10.28-5.12-9.61-7.23l9.73-30.94C720.74,404.76,724.85,396.24,734.37,399.24Z"/><path class="cls-23" d="M730.1,399.2l5.44-13.65c-.56-.44-.85-.89-.73-1.25l.87-2.77c.24-.77,2.18-.84,4.34-.16s3.71,1.85,3.47,2.62l-.87,2.77c-.12.37-.64.57-1.39.61l-3.34,14.28a.49.49,0,0,1,0,.24c-.24.77-2.21.85-4.4.16s-3.76-1.88-3.52-2.65A.56.56,0,0,1,730.1,399.2Z"/><path class="cls-23" d="M717.6,414.85c-.66,2.12,3.64,5.36,9.61,7.24,5.77,1.82,11,1.69,11.93-.23L734,438.07c-.67,2.12-6,2.32-12,.44s-10.28-5.12-9.61-7.24l5.16-16.43Z"/><path class="cls-23" d="M722.89,435.72c4.57,1.43,7.55,1.24,8.52.95l3.26-10.37a28.85,28.85,0,0,1-8.34-1.42,28.29,28.29,0,0,1-7.7-3.65l-3.27,10.39C716,432.42,718.33,434.28,722.89,435.72Z"/><path class="cls-23" d="M720.67,405.11c-.67,2.12,3.63,5.36,9.61,7.24,5.77,1.81,11,1.69,11.92-.24l-.93,3c-.67,2.12-6,2.32-12,.44s-10.28-5.12-9.61-7.24l1-3.17Z"/><path class="cls-23" d="M727.53,419.62c2.41.76,5.08-1.12,6.07-4.27s-.12-6.21-2.54-7S726,409.5,725,412.65,725.12,418.86,727.53,419.62Z"/><path class="cls-23" d="M726.39,413.09c-.73,2.33,0,4.63,1.58,5.13s3.5-1,4.23-3.31,0-4.63-1.57-5.13S727.12,410.75,726.39,413.09Z"/><path class="cls-23" d="M737.07,382c-.15.49.85,1.24,2.23,1.68s2.64.39,2.79-.1-.84-1.25-2.23-1.68S737.23,381.48,737.07,382Z"/><path class="cls-23" d="M741.23,387.37a9.52,9.52,0,0,1-3.82-.81"/><text class="cls-7" transform="translate(847.67 495.27)">8:35</text><text class="cls-15" transform="translate(836.76 509.41)">BRI<tspan class="cls-24" x="30.36" y="0">D</tspan><tspan x="41.03" y="0">AL</tspan><tspan class="cls-24"><tspan x="4.07" y="17.35">D</tspan><tspan class="cls-19" x="14.74" y="17.35">ANCE</tspan></tspan></text><path class="cls-5" d="M869.48,435.38h0a.68.68,0,0,1-.65-.5l-1.22-4.53-4.53-1.22a.68.68,0,0,1-.5-.65.67.67,0,0,1,.5-.64l4.53-1.22,1.22-4.53a.69.69,0,0,1,1.29,0l1.22,4.53,4.54,1.22a.66.66,0,0,1,.49.64.68.68,0,0,1-.49.65l-4.54,1.22-1.22,4.53A.67.67,0,0,1,869.48,435.38Zm-3.67-6.9,2.52.68a.66.66,0,0,1,.47.47l.68,2.52.68-2.52a.66.66,0,0,1,.47-.47l2.51-.68-2.51-.67a.67.67,0,0,1-.47-.47l-.68-2.52-.68,2.52a.67.67,0,0,1-.47.47Z"/><path class="cls-5" d="M874.64,395.1h0a.65.65,0,0,1-.64-.49l-1.22-4.53-4.54-1.23a.65.65,0,0,1-.49-.64.66.66,0,0,1,.49-.64l4.54-1.22,1.22-4.54a.69.69,0,0,1,1.28,0l1.23,4.54,4.53,1.22a.66.66,0,0,1,.49.64.65.65,0,0,1-.49.64l-4.53,1.23-1.23,4.53A.66.66,0,0,1,874.64,395.1ZM871,388.21l2.51.68a.66.66,0,0,1,.47.47l.68,2.52.68-2.52a.66.66,0,0,1,.47-.47l2.51-.68-2.51-.68a.66.66,0,0,1-.47-.47l-.68-2.51-.68,2.51a.66.66,0,0,1-.47.47Z"/><path class="cls-5" d="M892.87,409.12h0a.66.66,0,0,1-.64-.49L891,404.09l-4.53-1.22a.67.67,0,0,1-.5-.64.68.68,0,0,1,.5-.65l4.53-1.22,1.22-4.53a.7.7,0,0,1,1.29,0l1.22,4.53,4.53,1.22a.68.68,0,0,1,.5.65.67.67,0,0,1-.5.64l-4.53,1.22-1.22,4.54A.67.67,0,0,1,892.87,409.12Zm-3.66-6.89,2.52.68a.66.66,0,0,1,.47.47l.67,2.51.68-2.51a.66.66,0,0,1,.47-.47l2.52-.68-2.52-.68a.66.66,0,0,1-.47-.47l-.68-2.52-.67,2.52a.66.66,0,0,1-.47.47Z"/><path class="cls-5" d="M854.44,428.39a6.44,6.44,0,1,1,0-12.87,6.37,6.37,0,0,1,3.86,1.3l3.44-11.48L847,401.27,842.46,417a.66.66,0,0,1-.09.19,6.43,6.43,0,1,1-6-8.77,6.37,6.37,0,0,1,3.86,1.3l5.17-17.29a.66.66,0,0,1,.8-.45l21.26,5.41a.68.68,0,0,1,.42.32.65.65,0,0,1,.06.51L860.5,424.1a1.08,1.08,0,0,1-.08.19A6.44,6.44,0,0,1,854.44,428.39Zm0-11.54a5.11,5.11,0,1,0,4.78,6.82l0-.1,7.23-25.08-20-5.1-5.29,17.69a.66.66,0,0,1-1.12.27,5,5,0,0,0-3.71-1.63,5.11,5.11,0,1,0,4.78,6.82l.05-.1,4.7-16.18a.66.66,0,0,1,.82-.45l16,4.43a.67.67,0,0,1,.4.32.65.65,0,0,1,.06.51l-3.93,13.14a.67.67,0,0,1-1.13.27A5,5,0,0,0,854.44,416.85Z"/><path class="cls-5" d="M881.22,446a5.11,5.11,0,0,1-.78-.05,6.36,6.36,0,0,1-4.29-2.41,6.43,6.43,0,0,1,1.09-9,6.33,6.33,0,0,1,3.84-1.36l-9.45-23.89a.67.67,0,0,1,.17-.73c.21-.19,5.21-4.69,10.72-2.48a.72.72,0,0,1,.35.34l2,4.26a.64.64,0,0,1-.1.72.65.65,0,0,1-.69.2c-1.41-.42-5.28-1.2-7.3-.08l10.53,26a.67.67,0,0,1,.05.19,6.44,6.44,0,0,1-2.17,6.93A6.35,6.35,0,0,1,881.22,446Zm0-11.53a5,5,0,0,0-3.12,1.08,5.09,5.09,0,0,0-.86,7.17,5.11,5.11,0,0,0,7.16.86A5.11,5.11,0,0,0,886,438s0-.07,0-.1l-10.68-26.38a.67.67,0,0,1,.2-.77c2-1.6,5.57-1.17,7.54-.76l-1.29-2.76c-3.87-1.4-7.6,1.14-8.73,2l9.65,24.41a.67.67,0,0,1-.72.91A4.4,4.4,0,0,0,881.18,434.46Z"/></g><g id="Layer_7" data-name="Layer 7"><path class="cls-25" d="M377,391.38l13.59,14.83q12,13.1,24,26.2a5.18,5.18,0,0,0,2.31-1.68,5.63,5.63,0,0,0,1.08-2.35l-23.89-25.55q-6.68-7.12-13.34-14.27a2.31,2.31,0,0,0-3.35-.23A2.68,2.68,0,0,0,377,391.38Z"/><path class="cls-25" d="M390.53,406.36a21,21,0,0,0,1.94-1.89,19.87,19.87,0,0,0,1.5-1.89"/><path class="cls-25" d="M424.43,421.33a1.63,1.63,0,0,0-.95.26c-.4.27-.49.63-.9,1.21a7,7,0,0,1-.89,1,55.71,55.71,0,0,0-3.75,4.59,5,5,0,0,1-.89,2.35,4.43,4.43,0,0,1-2.5,1.68L409,437.47a2.62,2.62,0,0,0-1.13,1.95c0,.61.47.87,1.76,2.13.95.94,2,2,2.53,2.65,1.31,1.45,1.54,1.91,2.11,1.94.8,0,1.47-.84,1.84-1.44a71.35,71.35,0,0,1,6.08-7.64,43.22,43.22,0,0,1,6.81-6.27c.43-.28,1.75-1.13,1.82-2.39a2.16,2.16,0,0,0-.3-1.18A10.64,10.64,0,0,1,428,424.8c-.91-1.24-1.42-2.56-2.84-3.21A3.7,3.7,0,0,0,424.43,421.33Z"/><line class="cls-25" x1="410.26" y1="436.35" x2="416.97" y2="443.45"/><line class="cls-25" x1="422.19" y1="423.75" x2="428.9" y2="430.85"/><line class="cls-25" x1="415.33" y1="438.06" x2="419.68" y2="433.57"/><path class="cls-25" d="M423.62,391.32,410.1,406.11l-23.88,26.12a5.1,5.1,0,0,1-2.29-1.67,5.68,5.68,0,0,1-1.07-2.34l23.75-25.48,13.27-14.22a2.28,2.28,0,0,1,3.32-.24A2.69,2.69,0,0,1,423.62,391.32Z"/><path class="cls-25" d="M410.12,406.26a18.76,18.76,0,0,1-1.94-1.89,20,20,0,0,1-1.49-1.88"/><path class="cls-25" d="M376.4,421.19a1.54,1.54,0,0,1,1,.26c.4.27.49.63.89,1.2a6.44,6.44,0,0,0,.89,1,58.82,58.82,0,0,1,3.73,4.58,4.77,4.77,0,0,0,.88,2.34,4.34,4.34,0,0,0,2.48,1.67l5.55,5.06a2.58,2.58,0,0,1,1.12,1.94c0,.6-.47.86-1.75,2.12-.95.94-2,2-2.51,2.64-1.31,1.45-1.54,1.91-2.1,1.94-.8,0-1.46-.84-1.84-1.43a69.42,69.42,0,0,0-6-7.62,41.88,41.88,0,0,0-6.78-6.26c-.42-.28-1.74-1.13-1.8-2.38a2.19,2.19,0,0,1,.29-1.17,10.75,10.75,0,0,0,2.48-2.42c.91-1.24,1.41-2.55,2.82-3.2A3.92,3.92,0,0,1,376.4,421.19Z"/><line class="cls-25" x1="390.49" y1="436.16" x2="383.82" y2="443.25"/><line class="cls-25" x1="378.63" y1="423.6" x2="371.96" y2="430.68"/><line class="cls-25" x1="380.87" y1="433.33" x2="376.54" y2="428.85"/><ellipse class="cls-25" cx="400.29" cy="431.37" rx="4.68" ry="5.02"/><text class="cls-26" transform="translate(381.69 210.4)">w<tspan class="cls-27" x="62.14" y="0">edding timeline</tspan></text></g></svg>